<svg xmlns="http://www.w3.org/2000/svg" width="16" height="16" viewBox="0 0 16 16" fill="none"><mask id="path-1-inside-1_515_2302" fill="white"><path fill-rule="evenodd" clip-rule="evenodd" d="M8.22222 7.11111C10.1859 7.11111 11.7778 5.51923 11.7778 3.55556C11.7778 1.59188 10.1859 0 8.22222 0C6.25854 0 4.66667 1.59188 4.66667 3.55556C4.66667 5.51923 6.25854 7.11111 8.22222 7.11111ZM8.22222 16C11.6587 16 14.4444 14.4081 14.4444 12.4444C14.4444 10.4808 11.6587 8.88888 8.22222 8.88888C4.78578 8.88888 2 10.4808 2 12.4444C2 14.4081 4.78578 16 8.22222 16Z"></path></mask><path d="M10.7778 3.55556C10.7778 4.96695 9.63362 6.11111 8.22222 6.11111V8.11111C10.7382 8.11111 12.7778 6.07152 12.7778 3.55556H10.7778ZM8.22222 1C9.63362 1 10.7778 2.14416 10.7778 3.55556H12.7778C12.7778 1.03959 10.7382 -1 8.22222 -1V1ZM5.66667 3.55556C5.66667 2.14416 6.81083 1 8.22222 1V-1C5.70626 -1 3.66667 1.03959 3.66667 3.55556H5.66667ZM8.22222 6.11111C6.81083 6.11111 5.66667 4.96695 5.66667 3.55556H3.66667C3.66667 6.07152 5.70626 8.11111 8.22222 8.11111V6.11111ZM13.4444 12.4444C13.4444 12.9125 13.1033 13.5318 12.1259 14.0903C11.1767 14.6327 9.79866 15 8.22222 15V17C10.0822 17 11.8153 16.5713 13.1181 15.8268C14.3927 15.0985 15.4444 13.94 15.4444 12.4444H13.4444ZM8.22222 9.88888C9.79866 9.88888 11.1767 10.2561 12.1259 10.7985C13.1033 11.3571 13.4444 11.9763 13.4444 12.4444H15.4444C15.4444 10.9489 14.3927 9.79034 13.1181 9.06203C11.8153 8.31756 10.0822 7.88888 8.22222 7.88888V9.88888ZM3 12.4444C3 11.9763 3.34112 11.3571 4.31859 10.7985C5.26776 10.2561 6.64579 9.88888 8.22222 9.88888V7.88888C6.36222 7.88888 4.62913 8.31756 3.32631 9.06203C2.05177 9.79034 1 10.9489 1 12.4444H3ZM8.22222 15C6.64579 15 5.26776 14.6327 4.31859 14.0903C3.34112 13.5318 3 12.9125 3 12.4444H1C1 13.94 2.05177 15.0985 3.32631 15.8268C4.62913 16.5713 6.36222 17 8.22222 17V15Z" fill="#356DF1" mask="url(#path-1-inside-1_515_2302)"></path></svg>