<svg xmlns="http://www.w3.org/2000/svg" width="16" height="16" viewBox="0 0 16 16" fill="none"><g clip-path="url(#clip0_515_2309)"><path d="M14.6668 7.99998C14.6668 11.6819 11.6821 14.6666 8.00016 14.6666M14.6668 7.99998C14.6668 4.31808 11.6821 1.33331 8.00016 1.33331M14.6668 7.99998C14.6668 6.89541 11.6821 5.99998 8.00016 5.99998C4.31826 5.99998 1.3335 6.89541 1.3335 7.99998M14.6668 7.99998C14.6668 9.10455 11.6821 9.99998 8.00016 9.99998C4.31826 9.99998 1.3335 9.10455 1.3335 7.99998M8.00016 14.6666C4.31826 14.6666 1.3335 11.6819 1.3335 7.99998M8.00016 14.6666C9.47292 14.6666 10.6668 11.6819 10.6668 7.99998C10.6668 4.31808 9.47292 1.33331 8.00016 1.33331M8.00016 14.6666C6.5274 14.6666 5.3335 11.6819 5.3335 7.99998C5.3335 4.31808 6.5274 1.33331 8.00016 1.33331M1.3335 7.99998C1.3335 4.31808 4.31826 1.33331 8.00016 1.33331" stroke="#356DF1"></path></g><defs><clipPath id="clip0_515_2309"><rect width="16" height="16" fill="white"></rect></clipPath></defs></svg>