<svg xmlns="http://www.w3.org/2000/svg" width="16" height="16" viewBox="0 0 16 16" fill="none"><path d="M13.1718 11.9801L12.6867 11.8588L13.1718 11.9801ZM14.2527 7.65671L13.7676 7.53545L14.2527 7.65671ZM9.66684 6L9.23495 5.74806C9.14474 5.90271 9.1441 6.09378 9.23327 6.24903C9.32244 6.40428 9.48781 6.5 9.66684 6.5V6ZM10.5381 4.50645L10.1062 4.25451V4.25452L10.5381 4.50645ZM8.33351 2V1.5C8.15408 1.5 7.98841 1.59614 7.89939 1.75193L8.33351 2ZM5.75468 6.51295L6.1888 6.76102L6.1888 6.76102L5.75468 6.51295ZM5.96371 12.8646L5.68636 13.2806L5.96371 12.8646ZM6.99504 13.5521L7.27239 13.1361L6.99504 13.5521ZM10.5848 13.5H8.47424V14.5H10.5848V13.5ZM12.6867 11.8588C12.4456 12.8234 11.579 13.5 10.5848 13.5V14.5C12.0379 14.5 13.3045 13.5111 13.6569 12.1014L12.6867 11.8588ZM13.7676 7.53545L12.6867 11.8588L13.6569 12.1014L14.7377 7.77798L13.7676 7.53545ZM12.9591 6.5C13.5013 6.5 13.8991 7.00949 13.7676 7.53545L14.7377 7.77798C15.027 6.62088 14.1519 5.5 12.9591 5.5V6.5ZM9.66684 6.5H12.9591V5.5H9.66684V6.5ZM10.1062 4.25452L9.23495 5.74806L10.0987 6.25194L10.97 4.75839L10.1062 4.25452ZM9.09845 2.5C9.99887 2.5 10.5599 3.47675 10.1062 4.25451L10.97 4.75839C11.8126 3.31396 10.7707 1.5 9.09845 1.5V2.5ZM8.33351 2.5H9.09845V1.5H8.33351V2.5ZM6.1888 6.76102L8.76763 2.24807L7.89939 1.75193L5.32056 6.26488L6.1888 6.76102ZM6.16684 6.84371C6.16684 6.8147 6.17441 6.7862 6.1888 6.76102L5.32056 6.26488C5.21983 6.44116 5.16684 6.64068 5.16684 6.84371H6.16684ZM6.16684 12.3099V6.84371H5.16684V12.3099H6.16684ZM6.24106 12.4486C6.19469 12.4176 6.16684 12.3656 6.16684 12.3099H5.16684C5.16684 12.7 5.36179 13.0642 5.68636 13.2806L6.24106 12.4486ZM7.27239 13.1361L6.24106 12.4486L5.68636 13.2806L6.71769 13.9682L7.27239 13.1361ZM8.47424 13.5C8.04649 13.5 7.62831 13.3734 7.27239 13.1361L6.71769 13.9682C7.23787 14.3149 7.84907 14.5 8.47424 14.5V13.5ZM3.3335 5.5H2.66683V6.5H3.3335V5.5ZM5.16683 7.33333C5.16683 6.32081 4.34602 5.5 3.3335 5.5V6.5C3.79373 6.5 4.16683 6.8731 4.16683 7.33333H5.16683ZM5.16683 12V7.33333H4.16683V12H5.16683ZM3.3335 13.8333C4.34602 13.8333 5.16683 13.0125 5.16683 12H4.16683C4.16683 12.4602 3.79373 12.8333 3.3335 12.8333V13.8333ZM2.66683 13.8333H3.3335V12.8333H2.66683V13.8333ZM0.833496 12C0.833496 13.0125 1.65431 13.8333 2.66683 13.8333V12.8333C2.20659 12.8333 1.8335 12.4602 1.8335 12H0.833496ZM0.833496 7.33333V12H1.8335V7.33333H0.833496ZM2.66683 5.5C1.65431 5.5 0.833496 6.32081 0.833496 7.33333H1.8335C1.8335 6.8731 2.20659 6.5 2.66683 6.5V5.5Z" fill="#356DF1"></path></svg>