<svg xmlns="http://www.w3.org/2000/svg" width="20" height="16" viewBox="0 0 20 16" fill="none"><path d="M1.66667 16C1.2037 16 0.81037 15.8443 0.486667 15.5328C0.162222 15.222 0 14.8444 0 14.4C0 13.9556 0.162222 13.578 0.486667 13.2672C0.81037 12.9557 1.2037 12.8 1.66667 12.8C2.12963 12.8 2.52296 12.9557 2.84667 13.2672C3.17111 13.578 3.33333 13.9556 3.33333 14.4C3.33333 14.8444 3.17111 15.222 2.84667 15.5328C2.52296 15.8443 2.12963 16 1.66667 16ZM5.55556 15.4667V13.3333H20V15.4667H5.55556ZM1.66667 9.6C1.2037 9.6 0.81037 9.44427 0.486667 9.1328C0.162222 8.82205 0 8.44444 0 8C0 7.55556 0.162222 7.17796 0.486667 6.8672C0.81037 6.55573 1.2037 6.4 1.66667 6.4C2.12963 6.4 2.52296 6.55573 2.84667 6.8672C3.17111 7.17796 3.33333 7.55556 3.33333 8C3.33333 8.44444 3.17111 8.82205 2.84667 9.1328C2.52296 9.44427 2.12963 9.6 1.66667 9.6ZM5.55556 9.06667V6.93333H20V9.06667H5.55556ZM1.66667 3.2C1.2037 3.2 0.81037 3.04427 0.486667 2.7328C0.162222 2.42204 0 2.04444 0 1.6C0 1.15556 0.162222 0.777956 0.486667 0.4672C0.81037 0.155734 1.2037 0 1.66667 0C2.12963 0 2.52296 0.155734 2.84667 0.4672C3.17111 0.777956 3.33333 1.15556 3.33333 1.6C3.33333 2.04444 3.17111 2.42204 2.84667 2.7328C2.52296 3.04427 2.12963 3.2 1.66667 3.2ZM5.55556 2.66667V0.533333H20V2.66667H5.55556Z" fill="black"></path></svg>