<svg xmlns="http://www.w3.org/2000/svg" width="163" height="45" viewBox="0 0 163 45" fill="none"><rect width="162.186" height="44" transform="translate(0 0.958984)" fill="#000927"></rect><g filter="url(#filter0_ii_75_4162)"><path d="M32.3609 11.3298C32.1341 11.6172 32 12.0633 32 12.6409V33.2777C32 33.8562 32.1341 34.3013 32.3609 34.5887L32.4186 34.6559L42.0768 23.0955V22.9593V22.823L32.4186 11.2617L32.3609 11.3298Z" fill="url(#paint0_linear_75_4162)"></path><path d="M45.2953 26.9492L42.0764 23.0945V22.9583V22.822L45.2961 18.9683L45.3686 19.0177L49.183 21.6118C50.2721 22.3527 50.2721 23.5648 49.183 24.3066L45.3686 26.9007L45.2953 26.9492Z" fill="url(#paint1_linear_75_4162)"></path><g filter="url(#filter1_i_75_4162)"><path d="M45.3694 26.9L42.0765 22.9585L32.3615 34.5879C32.7201 35.0433 33.3133 35.0993 33.9814 34.6458L45.3694 26.9Z" fill="url(#paint2_linear_75_4162)"></path></g><path d="M45.3694 19.0175L33.9814 11.2726C33.3133 10.8182 32.7201 10.8751 32.3615 11.3304L42.0773 22.9599L45.3694 19.0175Z" fill="url(#paint3_linear_75_4162)"></path></g><path d="M82.4311 23.3407C80.4839 23.3407 78.8968 24.8211 78.8968 26.86C78.8968 28.8865 80.4839 30.3793 82.4311 30.3793C84.3792 30.3793 85.9662 28.8865 85.9662 26.86C85.9654 24.8211 84.3783 23.3407 82.4311 23.3407ZM82.4311 28.9941C81.364 28.9941 80.4442 28.1144 80.4442 26.8608C80.4442 25.5939 81.3648 24.7276 82.4311 24.7276C83.4983 24.7276 84.4181 25.5939 84.4181 26.8608C84.4181 28.1136 83.4983 28.9941 82.4311 28.9941ZM74.7201 23.3407C72.7728 23.3407 71.1858 24.8211 71.1858 26.86C71.1858 28.8865 72.7728 30.3793 74.7201 30.3793C76.6681 30.3793 78.2552 28.8865 78.2552 26.86C78.2552 24.8211 76.6681 23.3407 74.7201 23.3407ZM74.7201 28.9941C73.6529 28.9941 72.7331 28.1144 72.7331 26.8608C72.7331 25.5939 73.6537 24.7276 74.7201 24.7276C75.7872 24.7276 76.707 25.5939 76.707 26.8608C76.7078 28.1136 75.7872 28.9941 74.7201 28.9941ZM65.5486 24.4214V25.9142H69.1235C69.0167 26.7541 68.7368 27.3672 68.3096 27.7934C67.7897 28.313 66.9759 28.8865 65.5486 28.8865C63.348 28.8865 61.6277 27.1132 61.6277 24.9138C61.6277 22.7143 63.348 20.941 65.5486 20.941C66.7358 20.941 67.6026 21.4077 68.2426 22.0076L69.2965 20.9543C68.4024 20.1011 67.216 19.4482 65.5486 19.4482C62.5342 19.4482 60 21.9009 60 24.9138C60 27.9266 62.5342 30.3793 65.5486 30.3793C67.1754 30.3793 68.4032 29.8455 69.3627 28.8459C70.3496 27.8596 70.6567 26.4727 70.6567 25.3531C70.6567 25.0073 70.6302 24.687 70.5764 24.4206L65.5486 24.4214ZM103.059 25.5807C102.766 24.7946 101.872 23.3407 100.045 23.3407C98.2308 23.3407 96.7231 24.7673 96.7231 26.86C96.7231 28.8327 98.2175 30.3793 100.218 30.3793C101.831 30.3793 102.765 29.3929 103.153 28.8195L101.952 28.0193C101.552 28.606 101.005 28.9924 100.218 28.9924C99.4312 28.9924 98.8707 28.6324 98.5106 27.9258L103.219 25.9795L103.059 25.5807ZM98.2572 26.7541C98.2175 25.3937 99.3112 24.7011 100.098 24.7011C100.712 24.7011 101.232 25.0081 101.406 25.4475L98.2572 26.7541ZM94.4299 30.1666H95.9764V19.8223H94.4299V30.1666ZM91.8948 24.1276H91.8418C91.495 23.7139 90.8277 23.3407 89.9882 23.3407C88.2272 23.3407 86.6137 24.8873 86.6137 26.8741C86.6137 28.8468 88.2272 30.3801 89.9882 30.3801C90.8285 30.3801 91.495 30.0069 91.8418 29.5807H91.8948V30.0872C91.8948 31.4335 91.1746 32.1534 90.0147 32.1534C89.0676 32.1534 88.4806 31.474 88.2405 30.9006L86.8935 31.4608C87.2801 32.3933 88.3067 33.5402 90.0147 33.5402C91.8286 33.5402 93.3627 32.4736 93.3627 29.8737V23.555H91.8957L91.8948 24.1276ZM90.1215 28.9941C89.0543 28.9941 88.161 28.1004 88.161 26.8741C88.161 25.6337 89.0543 24.7276 90.1215 24.7276C91.1746 24.7276 92.0016 25.6337 92.0016 26.8741C92.0016 28.1004 91.1746 28.9941 90.1215 28.9941ZM110.306 19.8223H106.605V30.1666H108.149V26.2477H110.306C112.018 26.2477 113.702 25.0089 113.702 23.0354C113.702 21.0618 112.019 19.8223 110.306 19.8223ZM110.346 24.8078H108.149V21.2621H110.346C111.501 21.2621 112.157 22.2178 112.157 23.0354C112.157 23.8364 111.501 24.8078 110.346 24.8078ZM119.894 23.3225C118.775 23.3225 117.617 23.8149 117.137 24.9063L118.508 25.4781C118.802 24.9063 119.348 24.7193 119.92 24.7193C120.719 24.7193 121.531 25.1984 121.544 26.0499V26.1566C121.265 25.9969 120.665 25.7578 119.933 25.7578C118.456 25.7578 116.95 26.5695 116.95 28.0863C116.95 29.4707 118.162 30.3619 119.52 30.3619C120.558 30.3619 121.131 29.896 121.491 29.3499H121.544V30.1484H123.035V26.1823C123.036 24.3469 121.664 23.3225 119.894 23.3225ZM119.706 28.9916C119.201 28.9916 118.495 28.7384 118.495 28.1128C118.495 27.3143 119.374 27.0081 120.134 27.0081C120.812 27.0081 121.132 27.1546 121.544 27.354C121.424 28.313 120.599 28.9916 119.706 28.9916ZM128.468 23.5484L126.697 28.0334H126.644L124.806 23.5484H123.142L125.898 29.8166L124.327 33.3036H125.938L130.186 23.5484H128.468ZM114.554 30.1666H116.098V19.8223H114.554V30.1666Z" fill="white"></path><path d="M65.3554 13.7035C65.3554 14.3844 65.1503 14.9263 64.7392 15.3309C64.2727 15.8119 63.6639 16.0524 62.9161 16.0524C62.1998 16.0524 61.5902 15.8087 61.0898 15.3212C60.5885 14.8329 60.3379 14.2284 60.3379 13.5069C60.3379 12.7846 60.5885 12.1801 61.0898 11.6926C61.5902 11.2043 62.1998 10.9606 62.9161 10.9606C63.2718 10.9606 63.6118 11.0288 63.9344 11.1645C64.2578 11.301 64.5167 11.4822 64.7102 11.7089L64.2743 12.1379C63.946 11.7519 63.4935 11.5594 62.9153 11.5594C62.3925 11.5594 61.9409 11.7397 61.5596 12.1005C61.1783 12.4612 60.988 12.93 60.988 13.5061C60.988 14.0822 61.1783 14.551 61.5596 14.9117C61.9409 15.2724 62.3925 15.4528 62.9153 15.4528C63.4695 15.4528 63.9319 15.2716 64.3016 14.9085C64.5415 14.672 64.6805 14.343 64.7177 13.9213H62.9153V13.3355H65.3199C65.3447 13.463 65.3554 13.5857 65.3554 13.7035Z" fill="white"></path><path d="M69.1687 11.6675H66.9089V13.2128H68.947V13.7986H66.9089V15.344H69.1687V15.9436H66.2712V11.0687H69.1687V11.6675Z" fill="white"></path><path d="M71.8577 15.9436H71.22V11.6675H69.8337V11.0687H73.244V11.6675H71.8577V15.9436Z" fill="white"></path><path d="M75.7114 15.9436V11.0687H76.3491V15.9436H75.7114Z" fill="white"></path><path d="M79.1773 15.9436H78.5396V11.6675H77.1533V11.0687H80.5637V11.6675H79.1773V15.9436Z" fill="white"></path><path d="M87.0194 15.3139C86.5314 15.8063 85.9251 16.0525 85.1997 16.0525C84.4743 16.0525 83.868 15.8063 83.3808 15.3139C82.8927 14.8216 82.6496 14.2187 82.6496 13.5061C82.6496 12.7936 82.8927 12.1907 83.3808 11.6983C83.868 11.206 84.4743 10.959 85.1997 10.959C85.921 10.959 86.5265 11.2068 87.0161 11.7016C87.5058 12.1964 87.7506 12.7976 87.7506 13.5061C87.7506 14.2187 87.5066 14.8216 87.0194 15.3139ZM83.8514 14.9052C84.2187 15.2709 84.6678 15.4529 85.1997 15.4529C85.7315 15.4529 86.1815 15.27 86.548 14.9052C86.9152 14.5396 87.0997 14.0733 87.0997 13.5061C87.0997 12.939 86.9152 12.4727 86.548 12.107C86.1815 11.7414 85.7315 11.5594 85.1997 11.5594C84.6678 11.5594 84.2187 11.7422 83.8514 12.107C83.485 12.4727 83.3005 12.939 83.3005 13.5061C83.3005 14.0733 83.485 14.5396 83.8514 14.9052Z" fill="white"></path><path d="M88.6456 15.9436V11.0687H89.4215L91.8335 14.8606H91.8608L91.8335 13.9213V11.0687H92.4713V15.9436H91.8054L89.2817 11.9673H89.2544L89.2817 12.9065V15.9436H88.6456Z" fill="white"></path><path d="M65.3554 13.7035C65.3554 14.3844 65.1503 14.9263 64.7392 15.3309C64.2727 15.8119 63.6639 16.0524 62.9161 16.0524C62.1998 16.0524 61.5902 15.8087 61.0898 15.3212C60.5885 14.8329 60.3379 14.2284 60.3379 13.5069C60.3379 12.7846 60.5885 12.1801 61.0898 11.6926C61.5902 11.2043 62.1998 10.9606 62.9161 10.9606C63.2718 10.9606 63.6118 11.0288 63.9344 11.1645C64.2578 11.301 64.5167 11.4822 64.7102 11.7089L64.2743 12.1379C63.946 11.7519 63.4935 11.5594 62.9153 11.5594C62.3925 11.5594 61.9409 11.7397 61.5596 12.1005C61.1783 12.4612 60.988 12.93 60.988 13.5061C60.988 14.0822 61.1783 14.551 61.5596 14.9117C61.9409 15.2724 62.3925 15.4528 62.9153 15.4528C63.4695 15.4528 63.9319 15.2716 64.3016 14.9085C64.5415 14.672 64.6805 14.343 64.7177 13.9213H62.9153V13.3355H65.3199C65.3447 13.463 65.3554 13.5857 65.3554 13.7035Z" stroke="white" stroke-width="0.204511" stroke-miterlimit="10"></path><path d="M69.1687 11.6675H66.9089V13.2128H68.947V13.7986H66.9089V15.344H69.1687V15.9436H66.2712V11.0687H69.1687V11.6675Z" stroke="white" stroke-width="0.204511" stroke-miterlimit="10"></path><path d="M71.8577 15.9436H71.22V11.6675H69.8337V11.0687H73.244V11.6675H71.8577V15.9436Z" stroke="white" stroke-width="0.204511" stroke-miterlimit="10"></path><path d="M75.7114 15.9436V11.0687H76.3491V15.9436H75.7114Z" stroke="white" stroke-width="0.204511" stroke-miterlimit="10"></path><path d="M79.1773 15.9436H78.5396V11.6675H77.1533V11.0687H80.5637V11.6675H79.1773V15.9436Z" stroke="white" stroke-width="0.204511" stroke-miterlimit="10"></path><path d="M87.0194 15.3139C86.5314 15.8063 85.9251 16.0525 85.1997 16.0525C84.4743 16.0525 83.868 15.8063 83.3808 15.3139C82.8927 14.8216 82.6496 14.2187 82.6496 13.5061C82.6496 12.7936 82.8927 12.1907 83.3808 11.6983C83.868 11.206 84.4743 10.959 85.1997 10.959C85.921 10.959 86.5265 11.2068 87.0161 11.7016C87.5058 12.1964 87.7506 12.7976 87.7506 13.5061C87.7506 14.2187 87.5066 14.8216 87.0194 15.3139ZM83.8514 14.9052C84.2187 15.2709 84.6678 15.4529 85.1997 15.4529C85.7315 15.4529 86.1815 15.27 86.548 14.9052C86.9152 14.5396 87.0997 14.0733 87.0997 13.5061C87.0997 12.939 86.9152 12.4727 86.548 12.107C86.1815 11.7414 85.7315 11.5594 85.1997 11.5594C84.6678 11.5594 84.2187 11.7422 83.8514 12.107C83.485 12.4727 83.3005 12.939 83.3005 13.5061C83.3005 14.0733 83.485 14.5396 83.8514 14.9052Z" stroke="white" stroke-width="0.204511" stroke-miterlimit="10"></path><path d="M88.6456 15.9436V11.0687H89.4215L91.8335 14.8606H91.8608L91.8335 13.9213V11.0687H92.4713V15.9436H91.8054L89.2817 11.9673H89.2544L89.2817 12.9065V15.9436H88.6456Z" stroke="white" stroke-width="0.204511" stroke-miterlimit="10"></path><defs><filter id="filter0_ii_75_4162" x="32" y="10.959" width="17.9999" height="24" filterUnits="userSpaceOnUse" color-interpolation-filters="sRGB"></filter><filter id="filter1_i_75_4162" x="32.3615" y="22.9585" width="13.0079" height="12.0005" filterUnits="userSpaceOnUse" color-interpolation-filters="sRGB"></filter><linearGradient id="paint0_linear_75_4162" x1="41.2207" y1="12.4225" x2="25.8108" y2="25.2967" gradientUnits="userSpaceOnUse"><stop stop-color="#00A0FF"></stop><stop offset="0.0066" stop-color="#00A1FF"></stop><stop offset="0.2601" stop-color="#00BEFF"></stop><stop offset="0.5122" stop-color="#00D2FF"></stop><stop offset="0.7604" stop-color="#00DFFF"></stop><stop offset="1" stop-color="#00E3FF"></stop></linearGradient><linearGradient id="paint1_linear_75_4162" x1="50.6007" y1="22.9583" x2="31.7382" y2="22.9583" gradientUnits="userSpaceOnUse"><stop stop-color="#FFE000"></stop><stop offset="0.4087" stop-color="#FFBD00"></stop><stop offset="0.7754" stop-color="#FFA500"></stop><stop offset="1" stop-color="#FF9C00"></stop></linearGradient><linearGradient id="paint2_linear_75_4162" x1="43.5812" y1="25.099" x2="22.6835" y2="42.558" gradientUnits="userSpaceOnUse"><stop stop-color="#FF3A44"></stop><stop offset="1" stop-color="#C31162"></stop></linearGradient><linearGradient id="paint3_linear_75_4162" x1="29.9147" y1="4.46064" x2="39.2461" y2="12.2566" gradientUnits="userSpaceOnUse"><stop stop-color="#32A071"></stop><stop offset="0.0685" stop-color="#2DA771"></stop><stop offset="0.4762" stop-color="#15CF74"></stop><stop offset="0.8009" stop-color="#06E775"></stop><stop offset="1" stop-color="#00F076"></stop></linearGradient></defs></svg>