<svg xmlns="http://www.w3.org/2000/svg" width="16" height="16" viewBox="0 0 16 16" fill="none"><path d="M11.3477 13.3087V12.0966C11.3477 11.4537 11.0923 10.837 10.6376 10.3824C10.183 9.92777 9.56637 9.67236 8.92342 9.67236H4.07494C3.43199 9.67236 2.81537 9.92777 2.36074 10.3824C1.90611 10.837 1.6507 11.4537 1.6507 12.0966V13.3087" stroke="#8D8D8D" stroke-width="1.5" stroke-linecap="round" stroke-linejoin="round"></path><path d="M6.49919 7.24814C7.83807 7.24814 8.92344 6.16277 8.92344 4.8239C8.92344 3.48503 7.83807 2.39966 6.49919 2.39966C5.16032 2.39966 4.07495 3.48503 4.07495 4.8239C4.07495 6.16277 5.16032 7.24814 6.49919 7.24814Z" stroke="#8D8D8D" stroke-width="1.5" stroke-linecap="round" stroke-linejoin="round"></path><path d="M14.984 13.3088V12.0967C14.9836 11.5595 14.8048 11.0377 14.4758 10.6132C14.1467 10.1887 13.6859 9.8855 13.1658 9.75122" stroke="#8D8D8D" stroke-width="1.5" stroke-linecap="round" stroke-linejoin="round"></path><path d="M10.7416 2.47852C11.263 2.61203 11.7252 2.9153 12.0553 3.34052C12.3854 3.76574 12.5645 4.28872 12.5645 4.827C12.5645 5.36529 12.3854 5.88826 12.0553 6.31348C11.7252 6.7387 11.263 7.04197 10.7416 7.17549" stroke="#8D8D8D" stroke-width="1.5" stroke-linecap="round" stroke-linejoin="round"></path></svg>