<svg xmlns="http://www.w3.org/2000/svg" width="50" height="50" viewBox="0 0 34 33" fill="none">
<path d="M33.6643 23.2515C33.6617 22.286 33.1373 21.7295 32.1686 21.6383C32.0704 21.6297 31.9382 21.5376 31.8947 21.4491C31.7408 21.1287 31.6173 20.7936 31.4791 20.4576C31.4921 20.4376 31.5034 20.4038 31.5269 20.3838C32.2078 19.8056 32.266 18.7316 31.4886 18.0388C31.3678 17.9311 31.3008 17.7028 31.2999 17.53C31.2895 13.0987 31.293 8.66738 31.2904 4.23606C31.2904 3.96518 31.2825 3.69344 31.2556 3.42429C31.106 1.91362 29.9252 0.323068 27.9061 0.333486C19.8235 0.37516 11.7401 0.363005 3.65757 0.339563C2.04541 0.335222 1.03585 1.36318 0.648901 2.35727C0.516729 2.69674 0.436729 3.05617 0.333252 3.40606V22.7141C0.354121 22.7844 0.382817 22.8538 0.39586 22.9259C0.639336 24.3419 1.76454 25.8665 3.75844 25.7762C4.87408 25.7259 5.9932 25.7675 7.11058 25.7667C7.61145 25.7658 7.91145 25.5218 7.91666 25.1181C7.92101 24.7118 7.62362 24.4618 7.12537 24.4618C5.97494 24.46 4.82452 24.4444 3.67496 24.4661C2.78801 24.4835 2.19758 24.0615 1.88367 23.2793C1.73063 22.8981 1.65411 22.4614 1.6515 22.0499C1.63498 18.2688 1.64194 14.487 1.64194 10.7059V10.3508H29.9469V16.9327C29.4304 16.904 29.0095 17.056 28.6539 17.405C28.5956 17.4623 28.4417 17.4692 28.353 17.4388C28.0974 17.352 27.8591 17.2131 27.6008 17.1358C27.3887 17.0725 27.3252 16.9691 27.3104 16.7512C27.2521 15.9125 26.6974 15.3725 25.86 15.3395C25.3948 15.3204 24.9252 15.3213 24.4617 15.3604C23.8696 15.4116 23.3131 15.844 23.2678 16.4265C23.2252 16.9909 22.9531 17.2053 22.4809 17.3216C22.4087 17.339 22.3348 17.372 22.2748 17.4154C22.0939 17.5456 21.967 17.51 21.8 17.3564C21.1879 16.7903 20.3522 16.8094 19.7513 17.3859C19.454 17.6707 19.1592 17.9589 18.8792 18.261C18.3609 18.8202 18.3531 19.6354 18.8461 20.2154C18.9227 20.3057 19.0044 20.3899 19.0731 20.4654C18.9366 20.8049 18.8209 21.1313 18.6722 21.443C18.6296 21.5324 18.5001 21.6288 18.4018 21.6383C17.414 21.7286 16.894 22.28 16.8888 23.2697C16.8862 23.6561 16.8879 24.0424 16.8879 24.4609H16.4983C15.3809 24.4609 14.2636 24.4583 13.1462 24.4626C12.6662 24.4644 12.3731 24.7891 12.441 25.224C12.494 25.5592 12.7653 25.7649 13.1792 25.7658C14.807 25.7684 16.4349 25.7667 18.0618 25.7667C18.5957 25.7667 18.5948 25.7675 18.7861 26.2476C18.8427 26.3883 18.8896 26.5368 18.9687 26.6635C19.0905 26.8571 19.0705 26.9874 18.9035 27.1619C18.3627 27.7305 18.3557 28.5527 18.88 29.1344C19.1844 29.4722 19.5113 29.7917 19.8479 30.0973C20.3 30.5071 21.0357 30.6677 21.4652 30.2787C21.9844 29.8099 22.3783 30.0217 22.8626 30.2232C23.1009 30.3221 23.2113 30.4116 23.2287 30.6911C23.2783 31.509 23.8904 32.0629 24.7061 32.0742C25.107 32.0794 25.5087 32.0828 25.9104 32.0716C26.5313 32.0559 27.1826 31.6635 27.2348 31.0749C27.2965 30.3829 27.6887 30.1693 28.2287 30.0087C28.2382 30.0061 28.2495 30.0026 28.2582 29.9966C28.4443 29.8707 28.5817 29.8984 28.7556 30.0634C29.3208 30.6 30.1556 30.606 30.7312 30.0842C31.0686 29.7786 31.3912 29.4548 31.6956 29.1171C32.1191 28.6474 32.2408 27.9051 31.8373 27.4406C31.4573 27.0039 31.5312 26.6661 31.7695 26.2555C31.8069 26.1903 31.833 26.1157 31.8469 26.0428C31.886 25.824 32.0043 25.7641 32.2295 25.758C33.0443 25.7371 33.6469 25.1086 33.6634 24.2916C33.6695 23.9452 33.6651 23.5979 33.6643 23.2515ZM1.65933 8.98775C1.65237 8.87922 1.64281 8.78459 1.64281 8.68995C1.64194 7.1185 1.64194 5.54792 1.64194 3.97647C1.64194 3.37481 1.78976 2.81829 2.16367 2.33643C2.53497 1.85892 3.02192 1.65055 3.63409 1.65142C10.5671 1.65837 17.5001 1.65576 24.433 1.65576H27.8182C29.0947 1.65576 29.9226 2.41891 29.9556 3.70993C29.993 5.17112 29.9695 6.63491 29.9721 8.09784C29.973 8.38782 29.9721 8.6778 29.9721 8.98775H1.65933ZM31.6686 24.4609C31.0582 24.4618 30.9339 24.5816 30.7434 25.1485C30.5791 25.6373 30.3747 26.1165 30.1452 26.5793C29.9104 27.0507 29.913 27.2539 30.2747 27.6203C30.8078 28.162 30.8078 28.162 30.2817 28.689C29.7547 29.2178 29.7547 29.2178 29.2121 28.6864C28.8382 28.32 28.6434 28.3209 28.1695 28.5519C27.6765 28.7932 27.1635 28.9981 26.6452 29.1804C26.1896 29.3402 26.0409 29.4939 26.0356 29.967C26.0252 30.8891 26.153 30.7649 25.2156 30.7684C24.4539 30.771 24.5339 30.8543 24.5304 30.099C24.5278 29.4756 24.4 29.3419 23.8209 29.1501C23.3304 28.9877 22.8513 28.7811 22.3878 28.5527C21.9148 28.3201 21.7148 28.3235 21.3452 28.6864C20.8061 29.2152 20.8061 29.2152 20.2783 28.6882C19.7513 28.162 19.7513 28.162 20.2644 27.6455C20.6435 27.2643 20.6487 27.0533 20.4157 26.5802C20.1783 26.0974 19.9731 25.5956 19.7983 25.0877C19.6374 24.6189 19.4783 24.4652 18.9887 24.4609C18.2079 24.4548 18.2079 24.4548 18.2079 23.6873C18.2079 22.9684 18.2079 22.9684 18.9296 22.9624C19.4722 22.9572 19.6305 22.8017 19.8053 22.2826C19.9722 21.7833 20.1853 21.2971 20.4148 20.8222C20.6348 20.3647 20.6296 20.1615 20.2853 19.8047C19.7418 19.2421 19.7418 19.2421 20.2931 18.6925C20.4444 18.5423 20.5974 18.3939 20.7687 18.2263C20.8739 18.3079 20.9548 18.3574 21.02 18.4225C21.6557 19.0667 21.7209 19.243 22.707 18.6752C23.0583 18.4737 23.4626 18.3539 23.8539 18.2324C24.3478 18.0787 24.4939 17.9155 24.4983 17.405C24.5052 16.6514 24.5052 16.6514 25.26 16.6514C25.9922 16.6514 25.9922 16.6514 26.0035 17.3876C26.0104 17.8955 26.1704 18.0596 26.6478 18.2237C27.1765 18.4052 27.6956 18.6239 28.2008 18.8644C28.6252 19.0667 28.8513 19.0606 29.193 18.7325C29.76 18.1881 29.7634 18.1855 30.3069 18.7368C30.8817 19.3185 30.8852 19.1501 30.3139 19.7326C29.9052 20.1494 29.9034 20.3282 30.1634 20.8518C30.4026 21.3336 30.5991 21.8389 30.7773 22.3468C30.9312 22.787 31.1052 22.9502 31.5686 22.9615C32.3556 22.9815 32.3565 22.9815 32.3556 23.7863C32.3547 24.5243 32.4269 24.46 31.6686 24.4609Z" fill="#8D8D8D"/>
<path d="M16.167 18.0692C15.6026 18.7108 15.0331 19.3489 14.4618 19.9836C14.1566 20.3222 13.7479 20.3621 13.4618 20.0939C13.1827 19.8334 13.1888 19.4479 13.4835 19.1119C13.9757 18.5511 14.4731 17.9945 14.967 17.4354C14.974 17.4276 14.9766 17.4163 14.9974 17.3694C14.4957 16.8051 13.9992 16.2495 13.5053 15.6912C13.1896 15.3344 13.1757 14.9541 13.4627 14.6858C13.7574 14.4106 14.1566 14.4592 14.4827 14.8213C15.047 15.4481 15.6087 16.0775 16.1679 16.7105C16.5713 17.168 16.5722 17.6082 16.167 18.0692Z" fill="#8D8D8D"/>
<path d="M7.0314 20.1111C6.77923 20.3299 6.39314 20.3291 6.14706 20.0781C5.85141 19.7769 5.58011 19.4513 5.29837 19.1361C4.9662 18.7645 4.62881 18.3973 4.30446 18.0188C3.95403 17.609 3.95316 17.1636 4.30794 16.7573C4.8862 16.0974 5.47228 15.4437 6.0601 14.7916C6.35836 14.4609 6.74705 14.4183 7.03575 14.671C7.33053 14.9306 7.32966 15.3317 7.02357 15.6781C6.58618 16.1738 6.14358 16.6652 5.70445 17.1592C5.64097 17.2304 5.58445 17.3077 5.50967 17.4006C5.97749 17.9267 6.43749 18.4424 6.89749 18.9599C6.97661 19.0485 7.06009 19.1353 7.12792 19.2316C7.33139 19.5234 7.28792 19.8897 7.0314 20.1111Z" fill="#8D8D8D"/>
<path d="M11.5557 14.7708C11.4253 15.3247 11.2801 15.9463 11.1323 16.5671C10.8514 17.7453 10.5679 18.9234 10.2853 20.1016C10.2705 20.1641 10.2531 20.2275 10.2323 20.2891C10.1114 20.6442 9.78271 20.8343 9.44445 20.7449C9.10272 20.6546 8.89315 20.3369 8.97576 19.9679C9.19402 18.9972 9.42793 18.03 9.65836 17.0611C9.85054 16.2511 10.0436 15.4411 10.2401 14.6319C10.3331 14.249 10.5471 14.0406 10.8592 14.0146C11.2436 13.9816 11.5697 14.3028 11.5557 14.7708Z" fill="#8D8D8D"/>
<path d="M10.8427 25.1232C10.8349 25.4766 10.5523 25.7588 10.1975 25.7648C9.83837 25.7718 9.52533 25.4697 9.52272 25.1137C9.52011 24.7534 9.82098 24.4599 10.1905 24.4625C10.5636 24.4643 10.8497 24.7543 10.8427 25.1232Z" fill="#8D8D8D"/>
<path d="M25.6556 3.16299C23.7252 3.14563 21.7939 3.15431 19.8635 3.16126C19.3261 3.16299 18.8418 3.33924 18.4313 3.69347C17.7331 4.29513 17.4818 5.22151 17.78 6.08016C18.0783 6.93968 18.8774 7.53961 19.8035 7.55697C20.7896 7.57521 21.7765 7.56132 22.7635 7.56132V7.56392H25.6269C26.8991 7.54395 27.8652 6.6115 27.8765 5.39254C27.8878 4.15014 26.9365 3.17428 25.6556 3.16299ZM26.4878 5.72333C26.3269 6.07235 26.033 6.24946 25.6574 6.25033C23.7382 6.25727 21.8191 6.25988 19.9 6.24946C19.3557 6.24685 18.9705 5.8579 18.9687 5.36302C18.967 4.86988 19.3505 4.487 19.8991 4.47919C20.8635 4.46704 21.8287 4.47572 22.7939 4.47572C23.7374 4.47572 24.6808 4.46356 25.6234 4.47919C26.3347 4.49048 26.7643 5.12253 26.4878 5.72333Z" fill="#8D8D8D"/>
<path d="M12.1279 3.16028C10.9279 3.16289 9.93834 4.1483 9.92878 5.34989C9.91921 6.55843 10.9236 7.56382 12.1366 7.56121C13.3401 7.55861 14.327 6.57493 14.3313 5.37334C14.3366 4.15611 13.3427 3.15768 12.1279 3.16028ZM12.1183 6.24935C11.6279 6.2398 11.2418 5.83435 11.2522 5.33948C11.2618 4.85936 11.6514 4.47909 12.1322 4.47909C12.6227 4.47995 13.0279 4.88454 13.0218 5.36899C13.0166 5.85258 12.5992 6.2589 12.1183 6.24935Z" fill="#8D8D8D"/>
<path d="M6.42191 3.15943C5.21844 3.16116 4.23411 4.14397 4.22976 5.34817C4.22454 6.56018 5.18975 7.54559 6.39496 7.56122C7.61582 7.57685 8.6132 6.59838 8.62102 5.37508C8.62885 4.15612 7.63842 3.15769 6.42191 3.15943ZM6.41496 6.2511C5.93061 6.24416 5.53235 5.83176 5.54018 5.3447C5.54801 4.86805 5.93931 4.48257 6.41756 4.4791C6.9106 4.47476 7.30799 4.87066 7.30625 5.3638C7.30538 5.8526 6.89756 6.25718 6.41496 6.2511Z" fill="#8D8D8D"/>
<path d="M25.2964 19.7076C23.0782 19.6971 21.2782 21.4796 21.2713 23.6944C21.2652 25.8987 23.0704 27.7107 25.2756 27.7115C27.4642 27.7124 29.2773 25.9161 29.2929 23.7317C29.3077 21.5291 27.5086 19.718 25.2964 19.7076ZM25.2808 26.3997C23.7886 26.4014 22.5791 25.1816 22.5869 23.6831C22.5956 22.1984 23.7982 21.0133 25.2921 21.0177C26.7747 21.022 27.9825 22.2332 27.9773 23.71C27.9712 25.1851 26.7556 26.3979 25.2808 26.3997Z" fill="#8D8D8D"/>
</svg>