<svg width="50" height="50" viewBox="0 0 50 50" fill="none" xmlns="http://www.w3.org/2000/svg">
<path d="M28.7936 40.9808C28.7764 40.5908 28.4953 40.3799 28.0976 40.3707C27.6714 40.3628 27.2452 40.3696 26.7572 40.3696V39.8554C26.7572 37.8348 26.7595 35.8155 26.7561 33.7949C26.7538 33.2431 26.4133 32.9295 25.9356 33.0162C25.5814 33.0811 25.3905 33.3502 25.3894 33.8143C25.3871 35.8348 25.3883 37.8542 25.3883 39.8747V40.3422H7.62247V26.7072H8.11726C9.79934 26.7072 11.4814 26.7106 13.1635 26.7049C13.7451 26.7038 14.0937 26.2898 13.9257 25.8075C13.7988 25.4461 13.5109 25.3377 13.1486 25.3389C11.1672 25.3434 9.1857 25.3412 7.20423 25.3412C6.42033 25.3412 6.22379 25.5384 6.22379 26.3252V40.324C6.15065 40.3502 6.13808 40.3582 6.12437 40.3582C5.74042 40.3616 5.35532 40.3616 4.97023 40.3685C4.43315 40.3787 4.18175 40.6216 4.17261 41.1484C4.16461 41.5897 4.16461 42.0309 4.17375 42.4711C4.20575 44.1108 5.35989 45.4676 6.98026 45.7652C7.2168 45.8086 7.46135 45.8291 7.70132 45.8302C13.56 45.8337 19.4187 45.8348 25.2763 45.8314C27.1012 45.8291 28.4999 44.6717 28.7616 42.8964C28.853 42.2693 28.8233 41.6182 28.7936 40.9808ZM24.0581 44.4232C23.9073 43.3194 23.7713 43.0811 23.3039 43.1039C22.8423 43.1256 22.7075 43.3878 22.6275 44.4369H10.3536C10.277 43.389 10.1399 43.1176 9.67479 43.1062C9.33654 43.0971 9.08172 43.2647 9.00401 43.5885C8.94002 43.8576 8.9583 44.1461 8.93888 44.4494C8.38466 44.4494 7.84187 44.4984 7.31051 44.438C6.30378 44.3251 5.56901 43.4677 5.54158 42.4494C5.53587 42.2259 5.54044 42.0013 5.54044 41.7561H27.3754C27.8782 43.5589 26.3733 44.7732 24.0581 44.4232Z" fill="#010A27"/>
<path d="M30.8973 28.9398C29.79 27.0014 28.6713 25.0687 27.5434 23.1428C27.452 22.9877 27.2509 22.7973 27.1 22.7973C26.8589 22.7973 26.5161 22.876 26.4053 23.0459C26.2818 23.234 26.2738 23.6126 26.3835 23.819C26.9172 24.8224 27.508 25.7962 28.0782 26.7813C28.4964 27.5054 28.9147 28.2295 29.3478 28.9809C27.6497 29.6183 25.9802 30.2272 24.3232 30.8703C21.2653 32.055 18.084 32.9524 15.3049 34.7882C14.6673 35.2089 13.8868 34.9638 13.4857 34.3081C13.0104 33.5316 12.5578 32.7414 12.1179 31.9455C11.8048 31.3822 11.8779 30.673 12.3876 30.3184C13.208 29.7471 14.0959 29.2705 14.9655 28.7471C15.0558 28.8976 15.1072 28.982 15.1564 29.0675C15.6626 29.941 16.1608 30.819 16.6785 31.6855C16.899 32.0561 17.3047 32.1496 17.6372 31.9501C17.9549 31.7597 18.0497 31.3914 17.8635 31.0162C17.7698 30.8258 17.6543 30.6445 17.5481 30.4598C17.0738 29.6388 16.5985 28.8178 16.1174 27.9843C18.9845 25.6251 21.8184 23.2911 24.6958 20.9228C24.8089 21.1075 24.8843 21.242 24.97 21.3709C25.2157 21.738 25.5882 21.8429 25.9265 21.6445C26.259 21.4496 26.355 21.0642 26.147 20.6753C25.9733 20.3492 25.7813 20.0334 25.5939 19.7141C25.2283 19.0938 24.8443 19.0322 24.2775 19.4975C22.9143 20.6206 21.559 21.7529 20.1855 22.8623C17.4989 25.0322 14.9941 27.4472 11.8436 28.9889C11.8059 29.0071 11.7716 29.0345 11.7374 29.0596C11.0163 29.5955 10.5478 30.3264 10.6289 31.2044C10.6929 31.8953 10.4381 32.1816 9.90102 32.4963C9.08284 32.9763 8.79602 33.9638 9.10798 34.8486C9.41537 35.722 10.229 36.2967 11.158 36.1884C11.5934 36.1382 12.0208 35.9284 12.4241 35.7334C12.6607 35.6194 12.7967 35.6034 13.0149 35.7779C13.7428 36.3651 14.5827 36.5145 15.4695 36.234C15.8694 36.1063 16.2385 35.8794 16.6499 35.6844C17.0807 36.4301 17.4852 37.1975 17.9595 37.9204C18.1846 38.2648 18.5 38.5943 18.8508 38.8041C19.6061 39.2534 20.5888 39.0732 21.2139 38.4586C21.8641 37.8189 22.0207 36.8486 21.5739 36.023C21.1762 35.2876 20.7477 34.5692 20.3146 33.8121C21.4893 33.372 22.6332 32.9421 23.777 32.5134C25.9882 31.6855 28.2016 30.8589 30.4116 30.0276C30.999 29.8064 31.1784 29.4301 30.8973 28.9398ZM10.6895 34.7437C10.5169 34.6422 10.357 34.3674 10.3501 34.1667C10.3295 33.5898 10.8735 33.5122 11.2643 33.234C11.4997 33.6399 11.7168 34.0139 11.9442 34.4062C11.5294 34.6468 11.1729 35.0265 10.6895 34.7437ZM20.406 36.7995C20.5671 37.104 20.3706 37.4871 20.062 37.6182C19.7158 37.7653 19.3981 37.6935 19.2039 37.3731C18.7331 36.6 18.2897 35.8098 17.812 34.9866C18.2257 34.7517 18.5811 34.5487 18.9936 34.315C19.477 35.1565 19.9649 35.966 20.406 36.7995Z" fill="#010A27"/>
<path d="M45.2362 14.9773C45.2339 16.2829 44.3711 17.1415 43.0627 17.1426C40.4116 17.1472 37.7594 17.1461 35.1083 17.1426C33.777 17.1415 32.9211 16.2829 32.9177 14.9511C32.9154 13.6558 32.9131 12.3616 32.92 11.0674C32.9234 10.6056 33.2148 10.308 33.617 10.3171C34.0033 10.3262 34.265 10.6136 34.2855 11.0549C34.2901 11.1541 34.2867 11.2533 34.2867 11.3525C34.2867 12.5338 34.2844 13.7151 34.2867 14.8952C34.289 15.5394 34.5198 15.7766 35.1563 15.7766C37.7651 15.7789 40.3739 15.7789 42.9816 15.7778C43.6284 15.7766 43.8672 15.544 43.8672 14.9112C43.8695 12.308 43.8695 9.70481 43.8683 7.10163C43.8672 6.45511 43.6364 6.2168 43.0022 6.2168C40.3796 6.21452 37.756 6.21338 35.1334 6.2168C34.5244 6.2168 34.2912 6.45853 34.2867 7.07768C34.2844 7.46081 34.2958 7.84621 34.2821 8.22933C34.2672 8.66262 33.9804 8.94883 33.593 8.94427C33.2068 8.93856 32.9314 8.65008 32.9211 8.21223C32.9097 7.77209 32.9108 7.33082 32.92 6.88954C32.9428 5.74588 33.8147 4.86446 34.962 4.85306C36.3298 4.83938 37.6988 4.84964 39.0666 4.84964C40.4071 4.84964 41.7475 4.84508 43.0867 4.85078C44.3654 4.85534 45.2339 5.71851 45.2362 6.99673C45.2407 9.65692 45.2407 12.3171 45.2362 14.9773Z" fill="#010A27"/>
<path d="M45.2291 36.3903C45.18 37.4245 44.3321 38.299 43.2945 38.3082C40.4857 38.331 37.6769 38.3321 34.8693 38.3082C33.7791 38.299 32.9312 37.3823 32.9209 36.2717C32.9084 34.9057 32.9175 33.5397 32.9175 32.1748C32.9175 30.851 32.9141 29.5283 32.9187 28.2056C32.9221 26.8772 33.7803 26.0266 35.1195 26.0243C37.7569 26.022 40.3943 26.022 43.0317 26.0243C44.3732 26.0266 45.2314 26.8738 45.236 28.2022C45.2406 29.4678 45.2394 30.7335 45.236 32.0003C45.2348 32.5374 44.9777 32.8509 44.5526 32.8509C44.1264 32.8509 43.8704 32.5385 43.8693 32.0003C43.867 30.7483 43.8704 29.4963 43.867 28.2444C43.8659 27.632 43.627 27.3914 43.0134 27.3914C40.3897 27.3892 37.7672 27.3892 35.1447 27.3914C34.5276 27.3914 34.2876 27.6286 34.2876 28.2409C34.2853 30.8589 34.2853 33.4758 34.2876 36.0938C34.2876 36.7095 34.5265 36.9513 35.1367 36.9513C37.7592 36.9547 40.3829 36.9547 43.0054 36.9524C43.6236 36.9513 43.8624 36.713 43.8682 36.1052C43.8716 35.7209 43.8602 35.3367 43.8716 34.9536C43.8842 34.5146 44.1584 34.2284 44.5458 34.2238C44.9343 34.2192 45.2211 34.5054 45.2326 34.9399C45.2463 35.4233 45.2531 35.9079 45.2291 36.3903Z" fill="#010A27"/>
<path d="M12.8537 10.9978C10.2586 10.9955 7.66349 10.9955 5.06838 10.9978C4.39647 10.9978 4.17135 11.2236 4.17135 11.894C4.16906 13.6443 4.17021 15.3946 4.17021 17.1437C4.17021 18.894 4.16906 20.6443 4.17135 22.3946C4.17135 23.0639 4.39875 23.2908 5.06952 23.2908C7.66463 23.2919 10.2597 23.2919 12.8548 23.2908C13.5245 23.2908 13.7519 23.0627 13.7519 22.3934C13.753 18.8929 13.753 15.3935 13.7519 11.8929C13.7519 11.2236 13.5245 10.9978 12.8537 10.9978ZM12.3555 21.9008H5.56089V12.3957H12.3555V21.9008Z" fill="#010A27"/>
<path d="M21.2357 4.16676C17.8509 4.17246 15.1061 6.96264 15.1221 10.3811C15.1381 13.7243 17.9229 16.4712 21.2825 16.4609C24.697 16.4495 27.4486 13.6912 27.4395 10.2899C27.4292 6.89537 24.6592 4.16106 21.2357 4.16676ZM21.2734 15.0937C18.6623 15.096 16.5025 12.9581 16.4911 10.3583C16.4808 7.681 18.6303 5.52821 21.3111 5.53277C23.9199 5.53733 26.0636 7.681 26.0716 10.2899C26.0785 12.9444 23.9359 15.0903 21.2734 15.0937Z" fill="#010A27"/>
<path d="M39.071 29.4402C37.5581 29.4436 36.3365 30.6739 36.3411 32.1882C36.3445 33.6751 37.5695 34.8974 39.0619 34.9031C40.576 34.9088 41.8113 33.6853 41.8135 32.1757C41.817 30.666 40.5828 29.4356 39.071 29.4402ZM39.0585 33.5348C38.3134 33.5246 37.7055 32.9065 37.7112 32.162C37.7158 31.4014 38.3523 30.788 39.1179 30.8062C39.8561 30.8256 40.4617 31.4607 40.4446 32.2007C40.4263 32.9453 39.8046 33.5439 39.0585 33.5348Z" fill="#010A27"/>
<path d="M41.8113 8.27503C41.8045 8.66044 41.5154 8.93182 41.0754 8.94436C40.72 8.95576 40.3635 8.94664 40.007 8.94778C39.2871 8.95006 39.0757 9.16671 39.0768 9.89875C39.0779 10.023 39.0779 10.1473 39.0779 10.2978C40.1452 10.3491 40.4298 10.4985 40.4423 10.9797C40.4549 11.4677 40.1601 11.6296 39.0768 11.7026C39.0768 12.3457 39.0757 12.9934 39.0779 13.6422C39.0791 14.0344 38.9054 14.3024 38.5203 14.3947C38.1009 14.4951 37.7227 14.1655 37.7124 13.6855C37.6998 13.0344 37.709 12.3822 37.709 11.7072C37.1525 11.6228 36.3526 11.8668 36.3651 10.982C36.3777 10.1371 37.1422 10.3537 37.7101 10.3013C37.7101 10.0356 37.7033 9.79726 37.7113 9.55895C37.7513 8.5008 38.5911 7.6365 39.6447 7.58861C40.1281 7.5658 40.6138 7.57264 41.0983 7.58633C41.5314 7.59773 41.8182 7.88849 41.8113 8.27503Z" fill="#010A27"/>
<path d="M35.6739 23.9911C34.6157 24.2123 33.5542 24.4232 32.4937 24.6364C32.4103 24.6535 32.3234 24.6535 32.2846 24.6581C31.8264 24.6558 31.5293 24.4187 31.4813 24.0526C31.4344 23.6992 31.6812 23.3788 32.0812 23.2967C33.1828 23.0709 34.2855 22.8485 35.3882 22.6308C35.8819 22.5327 36.2395 22.7277 36.3309 23.1279C36.4292 23.5544 36.187 23.8839 35.6739 23.9911Z" fill="#010A27"/>
<path d="M30.7602 16.112C30.0655 17.079 29.3444 18.0276 28.6142 18.9695C28.5137 19.0995 28.3091 19.1485 28.2348 19.1896C27.6178 19.193 27.2441 18.6172 27.5389 18.1964C28.2314 17.2112 28.9605 16.25 29.7066 15.3047C29.9352 15.0151 30.2894 15.0117 30.59 15.2454C30.8859 15.4746 30.9796 15.8087 30.7602 16.112Z" fill="#010A27"/>
<path d="M33.6992 19.1792C33.5347 19.4153 33.4444 19.6376 33.281 19.7653C32.4068 20.4438 31.5178 21.104 30.6253 21.7573C30.2665 22.0207 29.8826 21.9649 29.6415 21.6536C29.3912 21.3297 29.4541 20.9386 29.83 20.6536C30.7008 19.9934 31.5784 19.3434 32.4537 18.6878C32.7017 18.5031 32.9828 18.4187 33.2399 18.6114C33.417 18.7437 33.529 18.9614 33.6992 19.1792Z" fill="#010A27"/>
<path d="M9.63103 15.0916C9.56147 15.0916 9.49192 15.0938 9.42236 15.095C9.49192 15.0938 9.56147 15.0927 9.63103 15.0927C9.77926 15.0916 9.92749 15.0973 10.0757 15.0973C9.92749 15.0973 9.77926 15.0916 9.63103 15.0916Z" fill="white"/>
<path d="M11.0117 17.1439C11.0117 17.5305 10.7237 17.811 10.2872 17.8235C9.84611 17.836 9.40388 17.8269 8.96165 17.8269C8.51942 17.8269 8.07719 17.836 7.6361 17.8235C7.19844 17.8121 6.91162 17.5316 6.91162 17.1439C6.91162 16.7562 7.1973 16.4712 7.63496 16.4655C8.51942 16.4541 9.40274 16.4541 10.2872 16.4655C10.7249 16.4712 11.0105 16.7562 11.0117 17.1439Z" fill="#010A27"/>
<path d="M11.0118 19.8965C10.9993 20.2808 10.709 20.5522 10.2668 20.5567C9.39716 20.5658 8.52756 20.5658 7.65795 20.5567C7.19858 20.551 6.89919 20.2568 6.91176 19.8555C6.92433 19.4701 7.21229 19.2055 7.65681 19.1964C8.0979 19.1861 8.54013 19.1941 8.98236 19.1941C9.40973 19.1941 9.83711 19.1861 10.2656 19.1964C10.7239 19.2067 11.0244 19.4963 11.0118 19.8965Z" fill="#010A27"/>
<path d="M11.0118 14.4266C11.0038 14.7801 10.7387 15.0595 10.3581 15.088C10.2644 15.0948 10.1707 15.0971 10.077 15.0971C9.92849 15.0971 9.77993 15.0914 9.63138 15.0925C9.56167 15.0925 9.49197 15.0937 9.42226 15.0948C9.26342 15.0971 9.10459 15.1005 8.94689 15.0891C8.54466 15.0618 8.27269 14.7687 8.28069 14.397C8.28869 14.0412 8.55151 13.7539 8.93432 13.7368C9.40284 13.7163 9.87478 13.7174 10.3444 13.7356C10.7467 13.7516 11.0198 14.0549 11.0118 14.4266Z" fill="#010A27"/>
<path d="M24.1896 9.63416C22.9029 8.99677 21.6185 8.35253 20.3318 7.71513C20.2072 7.65241 20.0701 7.61365 20.0061 7.58856C19.5159 7.57716 19.2325 7.88731 19.2302 8.37989C19.2256 9.65925 19.2245 10.9386 19.2302 12.218C19.2336 12.9329 19.6976 13.2237 20.3398 12.9078C21.6287 12.275 22.9109 11.6273 24.1976 10.9899C24.4855 10.8474 24.6969 10.6478 24.6947 10.3092C24.6924 9.97054 24.4775 9.77669 24.1896 9.63416ZM20.6197 11.2453V9.38331C21.2357 9.69117 21.8139 9.97966 22.4835 10.3137C21.815 10.6478 21.2379 10.9363 20.6197 11.2453Z" fill="#010A27"/>
</svg>
