<svg xmlns="http://www.w3.org/2000/svg" width="17" height="16" viewBox="0 0 17 16" fill="none"><g clip-path="url(#clip0_391_2823)"><path d="M11.8476 13.3086V12.0965C11.8476 11.4535 11.5922 10.8369 11.1376 10.3823C10.6829 9.92765 10.0663 9.67224 9.42336 9.67224H4.57488C3.93193 9.67224 3.31531 9.92765 2.86068 10.3823C2.40605 10.8369 2.15063 11.4535 2.15063 12.0965V13.3086" stroke="#6F768E" stroke-width="1.5" stroke-linecap="round" stroke-linejoin="round"></path><path d="M6.99919 7.24802C8.33807 7.24802 9.42344 6.16265 9.42344 4.82378C9.42344 3.48491 8.33807 2.39954 6.99919 2.39954C5.66032 2.39954 4.57495 3.48491 4.57495 4.82378C4.57495 6.16265 5.66032 7.24802 6.99919 7.24802Z" stroke="#6F768E" stroke-width="1.5" stroke-linecap="round" stroke-linejoin="round"></path><path d="M15.484 13.3086V12.0964C15.4836 11.5593 15.3048 11.0375 14.9757 10.613C14.6466 10.1885 14.1858 9.88526 13.6658 9.75098" stroke="#6F768E" stroke-width="1.5" stroke-linecap="round" stroke-linejoin="round"></path><path d="M11.2415 2.47839C11.7629 2.61191 12.2251 2.91518 12.5552 3.3404C12.8852 3.76562 13.0644 4.28859 13.0644 4.82688C13.0644 5.36516 12.8852 5.88814 12.5552 6.31336C12.2251 6.73857 11.7629 7.04185 11.2415 7.17536" stroke="#6F768E" stroke-width="1.5" stroke-linecap="round" stroke-linejoin="round"></path></g><defs><clipPath id="clip0_391_2823"><rect width="16" height="16" fill="white" transform="translate(0.5)"></rect></clipPath></defs></svg>