<svg xmlns="http://www.w3.org/2000/svg" width="99" height="25" viewBox="0 0 99 25" fill="none"><path d="M16.3005 12.8065C16.3243 10.9475 17.3188 9.18853 18.8964 8.21484C17.9012 6.78789 16.2342 5.88317 14.4998 5.82869C12.65 5.63377 10.8567 6.93992 9.91405 6.93992C8.95317 6.93992 7.50184 5.84805 5.93899 5.88033C3.90188 5.9464 2.00278 7.10911 1.01169 8.89703C-1.11878 12.6 0.470357 18.0421 2.51116 21.0353C3.53222 22.501 4.72555 24.1382 6.28699 24.0801C7.81495 24.0165 8.38562 23.102 10.23 23.102C12.0573 23.102 12.5927 24.0801 14.1858 24.0432C15.8254 24.0165 16.8584 22.571 17.8436 21.0915C18.5772 20.0471 19.1418 18.8929 19.5163 17.6715C17.5895 16.8534 16.3027 14.9068 16.3005 12.8065Z" fill="white"></path><path d="M13.2913 3.86022C14.1853 2.78286 14.6257 1.39809 14.5191 0C13.1533 0.144009 11.8917 0.79931 10.9856 1.83534C10.0997 2.84759 9.63859 4.20799 9.72576 5.55264C11.092 5.56677 12.4352 4.92923 13.2913 3.86022Z" fill="white"></path><path d="M70.7986 10.8867V13.1394H69.3921V14.6167H70.7986V19.6363C70.7986 21.3503 71.5709 22.0359 73.5141 22.0359C73.8555 22.0359 74.1807 21.9951 74.4653 21.9461V20.4851C74.2214 20.5096 74.0669 20.5259 73.7986 20.5259C72.9287 20.5259 72.5466 20.1178 72.5466 19.1874V14.6167H74.4653V13.1394H72.5466V10.8867H70.7986Z" fill="white"></path><path d="M79.4153 22.1583C82.0007 22.1583 83.586 20.4198 83.586 17.5387C83.586 14.6738 81.9925 12.9272 79.4153 12.9272C76.8299 12.9272 75.2364 14.6738 75.2364 17.5387C75.2364 20.4198 76.8217 22.1583 79.4153 22.1583ZM79.4153 20.5994C77.8949 20.5994 77.0413 19.4812 77.0413 17.5387C77.0413 15.6125 77.8949 14.4861 79.4153 14.4861C80.9275 14.4861 81.7893 15.6125 81.7893 17.5387C81.7893 19.473 80.9275 20.5994 79.4153 20.5994Z" fill="white"></path><path d="M84.9425 21.9869H86.6905V16.7388C86.6905 15.49 87.6254 14.6493 88.9507 14.6493C89.2596 14.6493 89.7799 14.7065 89.9263 14.7555V13.0251C89.7393 12.9762 89.406 12.9517 89.1458 12.9517C87.9913 12.9517 87.0075 13.5883 86.7555 14.4616H86.6254V13.0986H84.9425V21.9869Z" fill="white"></path><path d="M94.2665 14.4208C95.5592 14.4208 96.4047 15.3268 96.4454 16.7225H91.9738C92.0714 15.3349 92.9738 14.4208 94.2665 14.4208ZM96.4373 19.5873C96.1121 20.2811 95.3885 20.6647 94.3315 20.6647C92.9332 20.6647 92.0307 19.6771 91.9738 18.1182V18.0202H98.2259V17.4081C98.2259 14.6167 96.7381 12.9272 94.2746 12.9272C91.7787 12.9272 90.1933 14.731 90.1933 17.5713C90.1933 20.4117 91.7461 22.1583 94.2828 22.1583C96.3072 22.1583 97.7218 21.1789 98.1202 19.5873H96.4373Z" fill="white"></path><path d="M59.3355 18.7046C59.4703 20.8872 61.2821 22.283 63.9786 22.283C66.8606 22.283 68.6639 20.8195 68.6639 18.4846C68.6639 16.6489 67.6358 15.6338 65.1415 15.05L63.8017 14.7201C62.2175 14.3479 61.577 13.8488 61.577 12.9775C61.577 11.8777 62.5714 11.1586 64.0629 11.1586C65.4786 11.1586 66.4561 11.8608 66.633 12.9859H68.4701C68.3605 10.9302 66.5572 9.48364 64.0882 9.48364C61.4338 9.48364 59.6642 10.9302 59.6642 13.1043C59.6642 14.8978 60.6669 15.9637 62.8663 16.4797L64.4337 16.8604C66.0432 17.2411 66.751 17.7994 66.751 18.73C66.751 19.8128 65.6387 20.5995 64.1219 20.5995C62.4955 20.5995 61.3664 19.8636 61.2062 18.7046H59.3355Z" fill="white"></path><path d="M41.2281 12.9517C40.0249 12.9517 38.9842 13.5557 38.4476 14.5677H38.3175V13.0986H36.6346V24.9415H38.3826V20.6402H38.5208C38.9842 21.5788 39.9842 22.1338 41.2444 22.1338C43.4802 22.1338 44.903 20.3627 44.903 17.5387C44.903 14.7146 43.4802 12.9517 41.2281 12.9517ZM40.7322 20.5586C39.2688 20.5586 38.3501 19.3996 38.3501 17.5468C38.3501 15.6859 39.2688 14.5269 40.7403 14.5269C42.22 14.5269 43.1062 15.6614 43.1062 17.5387C43.1062 19.4241 42.22 20.5586 40.7322 20.5586Z" fill="white"></path><path d="M51.0195 12.9517C49.8162 12.9517 48.7756 13.5557 48.239 14.5677H48.1089V13.0986H46.4259V24.9415H48.1739V20.6402H48.3121C48.7756 21.5788 49.7756 22.1338 51.0357 22.1338C53.2715 22.1338 54.6943 20.3627 54.6943 17.5387C54.6943 14.7146 53.2715 12.9517 51.0195 12.9517ZM50.5235 20.5586C49.0601 20.5586 48.1414 19.3996 48.1414 17.5468C48.1414 15.6859 49.0601 14.5269 50.5317 14.5269C52.0114 14.5269 52.8976 15.6614 52.8976 17.5387C52.8976 19.4241 52.0114 20.5586 50.5235 20.5586Z" fill="white"></path><path d="M33.4984 21.9869H35.504L31.1136 9.77973H29.0828L24.6925 21.9869H26.6306L27.7514 18.7469H32.3861L33.4984 21.9869ZM30.0013 11.9961H30.1446L31.9058 17.1565H28.2317L30.0013 11.9961Z" fill="white"></path><path d="M24.644 1.16954V5.99473H26.3794C27.8117 5.99473 28.6411 5.10861 28.6411 3.56709C28.6411 2.04898 27.805 1.16954 26.3794 1.16954H24.644ZM25.3902 1.85169H26.2961C27.2921 1.85169 27.8816 2.48702 27.8816 3.57712C27.8816 4.68394 27.3021 5.31258 26.2961 5.31258H25.3902V1.85169Z" fill="white"></path><path d="M31.1812 6.06495C32.2404 6.06495 32.8899 5.35271 32.8899 4.17233C32.8899 2.99863 32.2371 2.28305 31.1812 2.28305C30.122 2.28305 29.4691 2.99863 29.4691 4.17233C29.4691 5.35271 30.1186 6.06495 31.1812 6.06495ZM31.1812 5.42627C30.5583 5.42627 30.2086 4.96816 30.2086 4.17233C30.2086 3.38318 30.5583 2.92172 31.1812 2.92172C31.8007 2.92172 32.1538 3.38318 32.1538 4.17233C32.1538 4.96482 31.8007 5.42627 31.1812 5.42627Z" fill="white"></path><path d="M38.4211 2.35327H37.705L37.0588 5.13201H37.0022L36.2561 2.35327H35.5699L34.8238 5.13201H34.7705L34.121 2.35327H33.3949L34.3941 5.99473H35.1302L35.8764 3.31295H35.933L36.6824 5.99473H37.4252L38.4211 2.35327Z" fill="white"></path><path d="M39.2458 5.99473H39.962V3.86469C39.962 3.29624 40.2984 2.94179 40.828 2.94179C41.3576 2.94179 41.6108 3.2327 41.6108 3.81788V5.99473H42.3269V3.63731C42.3269 2.77125 41.8806 2.28305 41.0712 2.28305C40.5249 2.28305 40.1652 2.52715 39.9886 2.93176H39.9353V2.35327H39.2458V5.99473Z" fill="white"></path><path d="M43.4547 5.99473H44.1709V0.932129H43.4547V5.99473Z" fill="white"></path><path d="M46.8642 6.06495C47.9234 6.06495 48.5729 5.35271 48.5729 4.17233C48.5729 2.99863 47.9201 2.28305 46.8642 2.28305C45.805 2.28305 45.1521 2.99863 45.1521 4.17233C45.1521 5.35271 45.8016 6.06495 46.8642 6.06495ZM46.8642 5.42627C46.2413 5.42627 45.8916 4.96816 45.8916 4.17233C45.8916 3.38318 46.2413 2.92172 46.8642 2.92172C47.4837 2.92172 47.8368 3.38318 47.8368 4.17233C47.8368 4.96482 47.4837 5.42627 46.8642 5.42627Z" fill="white"></path><path d="M50.7067 5.44968C50.3169 5.44968 50.0338 5.25908 50.0338 4.93138C50.0338 4.61037 50.2603 4.43983 50.7599 4.4064L51.646 4.34955V4.65384C51.646 5.10526 51.2463 5.44968 50.7067 5.44968ZM50.5235 6.05492C50.9998 6.05492 51.3961 5.8476 51.6126 5.48312H51.6693V5.99473H52.3588V3.5069C52.3588 2.73781 51.8458 2.28305 50.9365 2.28305C50.1138 2.28305 49.5275 2.68431 49.4543 3.30961H50.1471C50.227 3.05213 50.5035 2.905 50.9032 2.905C51.3928 2.905 51.646 3.12235 51.646 3.5069V3.82122L50.6634 3.87807C49.8007 3.93157 49.3144 4.30942 49.3144 4.96482C49.3144 5.63025 49.824 6.05492 50.5235 6.05492Z" fill="white"></path><path d="M54.789 6.05492C55.2886 6.05492 55.7116 5.8175 55.9281 5.41958H55.9847V5.99473H56.6709V0.932129H55.9548V2.93176H55.9015C55.7049 2.53049 55.2852 2.29308 54.789 2.29308C53.873 2.29308 53.2834 3.02204 53.2834 4.17233C53.2834 5.32596 53.8663 6.05492 54.789 6.05492ZM54.9921 2.93844C55.5917 2.93844 55.9681 3.41661 55.9681 4.17567C55.9681 4.93807 55.595 5.40955 54.9921 5.40955C54.3859 5.40955 54.0229 4.94476 54.0229 4.17233C54.0229 3.40658 54.3892 2.93844 54.9921 2.93844Z" fill="white"></path><path d="M61.3148 6.06495C62.374 6.06495 63.0235 5.35271 63.0235 4.17233C63.0235 2.99863 62.3706 2.28305 61.3148 2.28305C60.2556 2.28305 59.6027 2.99863 59.6027 4.17233C59.6027 5.35271 60.2522 6.06495 61.3148 6.06495ZM61.3148 5.42627C60.6919 5.42627 60.3422 4.96816 60.3422 4.17233C60.3422 3.38318 60.6919 2.92172 61.3148 2.92172C61.9343 2.92172 62.2874 3.38318 62.2874 4.17233C62.2874 4.96482 61.9343 5.42627 61.3148 5.42627Z" fill="white"></path><path d="M63.9715 5.99473H64.6876V3.86469C64.6876 3.29624 65.024 2.94179 65.5536 2.94179C66.0832 2.94179 66.3364 3.2327 66.3364 3.81788V5.99473H67.0525V3.63731C67.0525 2.77125 66.6062 2.28305 65.7968 2.28305C65.2505 2.28305 64.8908 2.52715 64.7142 2.93176H64.6609V2.35327H63.9715V5.99473Z" fill="white"></path><path d="M70.3507 1.44708V2.36999H69.7745V2.97523H70.3507V5.0317C70.3507 5.73391 70.6671 6.01479 71.4632 6.01479C71.6031 6.01479 71.7363 5.99807 71.8529 5.97801V5.37946C71.753 5.38949 71.6897 5.39618 71.5798 5.39618C71.2234 5.39618 71.0668 5.22898 71.0668 4.84778V2.97523H71.8529V2.36999H71.0668V1.44708H70.3507Z" fill="white"></path><path d="M72.8142 5.99473H73.5303V3.86803C73.5303 3.3163 73.8568 2.94513 74.443 2.94513C74.9493 2.94513 75.2191 3.23939 75.2191 3.82122V5.99473H75.9352V3.644C75.9352 2.77794 75.4589 2.28639 74.6862 2.28639C74.1399 2.28639 73.7568 2.53049 73.5803 2.93844H73.5237V0.932129H72.8142V5.99473Z" fill="white"></path><path d="M78.5186 2.89497C79.0482 2.89497 79.3946 3.26614 79.4113 3.83794H77.5793C77.6193 3.26948 77.989 2.89497 78.5186 2.89497ZM79.408 5.01163C79.2747 5.29586 78.9783 5.45302 78.5453 5.45302C77.9724 5.45302 77.6026 5.04842 77.5793 4.40974V4.36961H80.1408V4.11882C80.1408 2.97523 79.5312 2.28305 78.522 2.28305C77.4994 2.28305 76.8499 3.02204 76.8499 4.1857C76.8499 5.34936 77.4861 6.06495 78.5253 6.06495C79.3547 6.06495 79.9342 5.66369 80.0975 5.01163H79.408Z" fill="white"></path></svg>