<svg xmlns="http://www.w3.org/2000/svg" width="20" height="25" viewBox="0 0 20 25" fill="none"><path d="M16.3005 12.8065C16.3243 10.9475 17.3188 9.18853 18.8964 8.21484C17.9012 6.78789 16.2342 5.88317 14.4998 5.82869C12.65 5.63377 10.8567 6.93992 9.91405 6.93992C8.95317 6.93992 7.50184 5.84805 5.93899 5.88033C3.90188 5.9464 2.00278 7.10911 1.01169 8.89703C-1.11878 12.6 0.470357 18.0421 2.51116 21.0353C3.53222 22.501 4.72555 24.1382 6.28699 24.0801C7.81495 24.0165 8.38562 23.102 10.23 23.102C12.0573 23.102 12.5927 24.0801 14.1858 24.0432C15.8254 24.0165 16.8584 22.571 17.8436 21.0915C18.5772 20.0471 19.1418 18.8929 19.5163 17.6715C17.5895 16.8534 16.3027 14.9068 16.3005 12.8065Z" fill="white"></path><path d="M13.2913 3.86022C14.1853 2.78286 14.6257 1.39809 14.5191 0C13.1533 0.144009 11.8917 0.79931 10.9856 1.83534C10.0997 2.84759 9.63859 4.20799 9.72576 5.55264C11.092 5.56677 12.4352 4.92923 13.2913 3.86022Z" fill="white"></path></svg>