<svg xmlns="http://www.w3.org/2000/svg" width="40" height="40" viewBox="0 0 40 40" fill="none"><g clip-path="url(#clip0_127_371)"><path d="M38.6998 17.5999L37.4998 16.4999C37.0998 15.9999 36.7998 14.9999 36.9998 14.2999L37.3998 12.6999C37.5998 11.7999 37.4998 10.8999 37.0998 10.1999C36.5998 9.3999 35.8998 8.8999 35.0998 8.5999L33.4998 8.1999C32.8998 7.9999 32.0998 7.2999 31.8998 6.5999L31.4998 4.9999C30.9998 3.2999 29.0998 2.1999 27.3998 2.5999L25.7998 2.9999C25.0998 3.2999 23.9998 2.9999 23.4998 2.5999L22.2998 1.4999C20.9998 0.199902 18.7998 0.199902 17.4998 1.4999L16.2998 2.5999C15.9998 2.9999 14.8998 3.2999 14.2998 3.1999L12.6998 2.7999C10.8998 2.2999 8.9998 3.3999 8.5998 5.0999L8.1998 6.6999C7.9998 7.2999 7.1998 8.0999 6.5998 8.1999L4.9998 8.6999C4.0998 8.8999 3.3998 9.4999 2.9998 10.2999C2.4998 11.0999 2.3998 11.9999 2.6998 12.7999L2.9998 14.2999C3.1998 14.9999 2.8998 15.9999 2.3998 16.4999L1.2998 17.5999C0.699805 18.1999 0.299805 19.0999 0.299805 19.9999C0.299805 20.8999 0.599805 21.6999 1.2998 22.3999L2.3998 23.4999C2.8998 23.9999 3.1998 24.9999 2.9998 25.5999L2.5998 27.1999C2.3998 28.0999 2.4998 28.9999 2.8998 29.6999C3.3998 30.4999 4.0998 30.9999 4.8998 31.2999L6.4998 31.6999C7.0998 31.8999 7.89981 32.5999 8.0998 33.2999L8.4998 34.8999C8.9998 36.5999 10.8998 37.6999 12.5998 37.2999L14.1998 36.8999C14.7998 36.6999 15.8998 36.9999 16.3998 37.4999L17.5998 38.5999C18.1998 39.1999 19.0998 39.5999 19.9998 39.5999C20.8998 39.5999 21.7998 39.2999 22.3998 38.5999L23.5998 37.4999C24.0998 37.0999 25.1998 36.7999 25.7998 36.8999L27.3998 37.2999C27.6998 37.3999 27.9998 37.3999 28.2998 37.3999C29.7998 37.3999 31.1998 36.3999 31.5998 34.8999L31.9998 33.2999C32.1998 32.6999 32.9998 31.8999 33.5998 31.6999L35.1998 31.2999C36.9998 30.7999 38.0998 28.9999 37.5998 27.1999L36.9998 25.5999C36.7998 24.9999 37.0998 23.8999 37.5998 23.3999L38.7998 22.2999C39.9998 20.9999 39.9998 18.8999 38.6998 17.5999Z" fill="#356DF1"></path><path d="M28.7997 15.6999L18.2997 26.0999C17.9997 26.3999 17.6997 26.4999 17.3997 26.4999C17.0997 26.4999 16.6997 26.3999 16.4997 26.0999L11.1997 20.8999C10.6997 20.3999 10.6997 19.5999 11.1997 19.0999C11.6997 18.5999 12.4997 18.5999 13.0997 19.0999L17.3997 23.3999L26.9997 13.8999C27.4997 13.3999 28.2997 13.3999 28.8997 13.8999C29.4997 14.3999 29.2997 15.1999 28.7997 15.6999Z" fill="white"></path></g><defs><clipPath id="clip0_127_371"><rect width="40" height="40" fill="white"></rect></clipPath></defs></svg>