<svg xmlns="http://www.w3.org/2000/svg" width="96" height="24" viewBox="0 0 96 24" fill="none"><g filter="url(#filter0_ii_2_748)"><path d="M0.405815 1.14188C0.15073 1.41292 -4.23362e-05 1.83356 -4.23362e-05 2.37828V21.8404C-4.23362e-05 22.386 0.15073 22.8057 0.405815 23.0768L0.470681 23.1401L11.3306 12.2378V12.1093V11.9808L0.470681 1.07764L0.405815 1.14188Z" fill="url(#paint0_linear_2_748)"></path><path d="M14.9498 15.873L11.3304 12.2377V12.1092V11.9807L14.9507 8.34631L15.0322 8.39295L19.3213 10.8394C20.5459 11.5381 20.5459 12.6812 19.3213 13.3808L15.0322 15.8272L14.9498 15.873Z" fill="url(#paint1_linear_2_748)"></path><g filter="url(#filter1_i_2_748)"><path d="M15.0324 15.8262L11.3297 12.1091L0.405808 23.0766C0.809034 23.506 1.47611 23.5588 2.22734 23.1311L15.0324 15.8262Z" fill="url(#paint2_linear_2_748)"></path></g><path d="M15.0324 8.39223L2.22734 1.08823C1.47611 0.659667 0.809034 0.713347 0.405808 1.14279L11.3306 12.1102L15.0324 8.39223Z" fill="url(#paint3_linear_2_748)"></path></g><path d="M47.7836 13.1741C45.8364 13.1741 44.2493 14.6544 44.2493 16.6934C44.2493 18.7199 45.8364 20.2126 47.7836 20.2126C49.7317 20.2126 51.3187 18.7199 51.3187 16.6934C51.3179 14.6544 49.7308 13.1741 47.7836 13.1741ZM47.7836 18.8274C46.7164 18.8274 45.7966 17.9478 45.7966 16.6942C45.7966 15.4273 46.7173 14.5609 47.7836 14.5609C48.8508 14.5609 49.7706 15.4273 49.7706 16.6942C49.7706 17.947 48.8508 18.8274 47.7836 18.8274ZM40.0725 13.1741C38.1253 13.1741 36.5382 14.6544 36.5382 16.6934C36.5382 18.7199 38.1253 20.2126 40.0725 20.2126C42.0206 20.2126 43.6077 18.7199 43.6077 16.6934C43.6077 14.6544 42.0206 13.1741 40.0725 13.1741ZM40.0725 18.8274C39.0054 18.8274 38.0856 17.9478 38.0856 16.6942C38.0856 15.4273 39.0062 14.5609 40.0725 14.5609C41.1397 14.5609 42.0595 15.4273 42.0595 16.6942C42.0603 17.947 41.1397 18.8274 40.0725 18.8274ZM30.9011 14.2548V15.7475H34.4759C34.3691 16.5874 34.0893 17.2006 33.6621 17.6268C33.1422 18.1464 32.3284 18.7199 30.9011 18.7199C28.7005 18.7199 26.9801 16.9466 26.9801 14.7471C26.9801 12.5477 28.7005 10.7744 30.9011 10.7744C32.0883 10.7744 32.9551 11.2411 33.5951 11.841L34.649 10.7876C33.7548 9.9345 32.5685 9.28162 30.9011 9.28162C27.8867 9.28162 25.3525 11.7343 25.3525 14.7471C25.3525 17.76 27.8867 20.2126 30.9011 20.2126C32.5279 20.2126 33.7557 19.6789 34.7152 18.6793C35.7021 17.693 36.0092 16.3061 36.0092 15.1865C36.0092 14.8406 35.9827 14.5204 35.9289 14.2539L30.9011 14.2548ZM68.4116 15.4141C68.1185 14.628 67.2243 13.1741 65.3972 13.1741C63.5832 13.1741 62.0756 14.6007 62.0756 16.6934C62.0756 18.6661 63.57 20.2126 65.5702 20.2126C67.1838 20.2126 68.1176 19.2263 68.5051 18.6528L67.3046 17.8527C66.9048 18.4393 66.3575 18.8258 65.5702 18.8258C64.7837 18.8258 64.2232 18.4658 63.8631 17.7592L68.5713 15.8129L68.4116 15.4141ZM63.6097 16.5874C63.57 15.2271 64.6637 14.5345 65.451 14.5345C66.0645 14.5345 66.5844 14.8415 66.7582 15.2809L63.6097 16.5874ZM59.7824 20H61.3289V9.65564H59.7824V20ZM57.2473 13.961H57.1943C56.8474 13.5473 56.1802 13.1741 55.3407 13.1741C53.5797 13.1741 51.9662 14.7206 51.9662 16.7074C51.9662 18.6801 53.5797 20.2135 55.3407 20.2135C56.181 20.2135 56.8474 19.8403 57.1943 19.4141H57.2473V19.9205C57.2473 21.2668 56.5271 21.9868 55.3672 21.9868C54.42 21.9868 53.8331 21.3074 53.593 20.7339L52.246 21.2942C52.6326 22.2267 53.6592 23.3736 55.3672 23.3736C57.1811 23.3736 58.7152 22.307 58.7152 19.707V13.3884H57.2482L57.2473 13.961ZM55.474 18.8274C54.4068 18.8274 53.5135 17.9338 53.5135 16.7074C53.5135 15.467 54.4068 14.5609 55.474 14.5609C56.5271 14.5609 57.3541 15.467 57.3541 16.7074C57.3541 17.9338 56.5271 18.8274 55.474 18.8274ZM75.659 9.65564H71.9574V20H73.5015V16.081H75.6582C77.3703 16.081 79.0542 14.8423 79.0542 12.8687C79.0542 10.8952 77.3711 9.65564 75.659 9.65564ZM75.6987 14.6412H73.5015V11.0955H75.6987C76.8536 11.0955 77.5093 12.0512 77.5093 12.8687C77.5093 13.6697 76.8536 14.6412 75.6987 14.6412ZM85.2461 13.1559C84.1276 13.1559 82.9693 13.6482 82.49 14.7397L83.861 15.3115C84.1541 14.7397 84.7005 14.5527 85.2726 14.5527C86.0715 14.5527 86.8836 15.0318 86.8969 15.8833V15.99C86.6171 15.8303 86.0177 15.5912 85.2858 15.5912C83.808 15.5912 82.3029 16.4029 82.3029 17.9197C82.3029 19.3041 83.5149 20.1953 84.8727 20.1953C85.9109 20.1953 86.4838 19.7294 86.8431 19.1832H86.8961V19.9818H88.3879V16.0157C88.3888 14.1803 87.0161 13.1559 85.2461 13.1559ZM85.059 18.825C84.5539 18.825 83.8477 18.5717 83.8477 17.9462C83.8477 17.1476 84.727 16.8415 85.4862 16.8415C86.1642 16.8415 86.4846 16.9879 86.8969 17.1874C86.7768 18.1464 85.9514 18.825 85.059 18.825ZM93.8206 13.3818L92.0497 17.8667H91.9968L90.1588 13.3818H88.4947L91.2508 19.6499L89.6795 23.137H91.2906L95.5385 13.3818H93.8206ZM79.9069 20H81.451V9.65564H79.9069V20Z" fill="#090909"></path><path d="M30.7083 3.53703C30.7083 4.21789 30.5031 4.75982 30.092 5.16444C29.6255 5.64544 29.0167 5.88593 28.269 5.88593C27.5527 5.88593 26.943 5.64219 26.4426 5.15469C25.9414 4.66639 25.6907 4.0619 25.6907 3.34041C25.6907 2.6181 25.9414 2.01361 26.4426 1.52612C26.943 1.03781 27.5527 0.794068 28.269 0.794068C28.6247 0.794068 28.9646 0.862317 29.2872 0.998002C29.6106 1.1345 29.8695 1.31569 30.0631 1.54237L29.6272 1.97136C29.2988 1.58543 28.8463 1.39287 28.2682 1.39287C27.7454 1.39287 27.2938 1.57324 26.9124 1.93399C26.5311 2.29473 26.3409 2.76354 26.3409 3.33959C26.3409 3.91565 26.5311 4.38445 26.9124 4.7452C27.2938 5.10594 27.7454 5.28632 28.2682 5.28632C28.8223 5.28632 29.2847 5.10513 29.6545 4.74195C29.8943 4.50552 30.0333 4.17646 30.0705 3.75478H28.2682V3.16897H30.6727C30.6975 3.29653 30.7083 3.41922 30.7083 3.53703Z" fill="#090909"></path><path d="M34.5215 1.50098H32.2618V3.04633H34.2999V3.63214H32.2618V5.17749H34.5215V5.77711H31.624V0.902175H34.5215V1.50098Z" fill="#090909"></path><path d="M37.2105 5.77711H36.5728V1.50098H35.1865V0.902175H38.5969V1.50098H37.2105V5.77711Z" fill="#090909"></path><path d="M41.0642 5.77711V0.902175H41.702V5.77711H41.0642Z" fill="#090909"></path><path d="M44.5302 5.77711H43.8924V1.50098H42.5061V0.902175H45.9165V1.50098H44.5302V5.77711Z" fill="#090909"></path><path d="M52.3723 5.14742C51.8842 5.63979 51.2779 5.88597 50.5525 5.88597C49.8271 5.88597 49.2208 5.63979 48.7336 5.14742C48.2456 4.65505 48.0024 4.05218 48.0024 3.33963C48.0024 2.62708 48.2456 2.02421 48.7336 1.53184C49.2208 1.03948 49.8271 0.79248 50.5525 0.79248C51.2738 0.79248 51.8793 1.04029 52.369 1.53509C52.8586 2.0299 53.1035 2.63114 53.1035 3.33963C53.1035 4.05218 52.8595 4.65505 52.3723 5.14742ZM49.2043 4.73874C49.5715 5.10436 50.0207 5.28636 50.5525 5.28636C51.0844 5.28636 51.5344 5.10355 51.9008 4.73874C52.268 4.37312 52.4525 3.90675 52.4525 3.33963C52.4525 2.77252 52.268 2.30615 51.9008 1.94053C51.5344 1.57491 51.0844 1.39291 50.5525 1.39291C50.0207 1.39291 49.5715 1.57572 49.2043 1.94053C48.8378 2.30615 48.6534 2.77252 48.6534 3.33963C48.6534 3.90675 48.8378 4.37312 49.2043 4.73874Z" fill="#090909"></path><path d="M53.9985 5.77711V0.902175H54.7744L57.1864 4.69406H57.2136L57.1864 3.75482V0.902175H57.8241V5.77711H57.1582L54.6346 1.80079H54.6073L54.6346 2.74002V5.77711H53.9985Z" fill="#090909"></path><path d="M30.7083 3.53703C30.7083 4.21789 30.5031 4.75982 30.092 5.16444C29.6255 5.64544 29.0167 5.88593 28.269 5.88593C27.5527 5.88593 26.943 5.64219 26.4426 5.15469C25.9414 4.66639 25.6907 4.0619 25.6907 3.34041C25.6907 2.6181 25.9414 2.01361 26.4426 1.52612C26.943 1.03781 27.5527 0.794068 28.269 0.794068C28.6247 0.794068 28.9646 0.862317 29.2872 0.998002C29.6106 1.1345 29.8695 1.31569 30.0631 1.54237L29.6272 1.97136C29.2988 1.58543 28.8463 1.39287 28.2682 1.39287C27.7454 1.39287 27.2938 1.57324 26.9124 1.93399C26.5311 2.29473 26.3409 2.76354 26.3409 3.33959C26.3409 3.91565 26.5311 4.38445 26.9124 4.7452C27.2938 5.10594 27.7454 5.28632 28.2682 5.28632C28.8223 5.28632 29.2847 5.10513 29.6545 4.74195C29.8943 4.50552 30.0333 4.17646 30.0705 3.75478H28.2682V3.16897H30.6727C30.6975 3.29653 30.7083 3.41922 30.7083 3.53703Z" stroke="white" stroke-width="0.204511" stroke-miterlimit="10"></path><path d="M34.5215 1.50098H32.2618V3.04633H34.2999V3.63214H32.2618V5.17749H34.5215V5.77711H31.624V0.902175H34.5215V1.50098Z" stroke="white" stroke-width="0.204511" stroke-miterlimit="10"></path><path d="M37.2105 5.77711H36.5728V1.50098H35.1865V0.902175H38.5969V1.50098H37.2105V5.77711Z" stroke="white" stroke-width="0.204511" stroke-miterlimit="10"></path><path d="M41.0642 5.77711V0.902175H41.702V5.77711H41.0642Z" stroke="white" stroke-width="0.204511" stroke-miterlimit="10"></path><path d="M44.5302 5.77711H43.8924V1.50098H42.5061V0.902175H45.9165V1.50098H44.5302V5.77711Z" stroke="white" stroke-width="0.204511" stroke-miterlimit="10"></path><path d="M52.3723 5.14742C51.8842 5.63979 51.2779 5.88597 50.5525 5.88597C49.8271 5.88597 49.2208 5.63979 48.7336 5.14742C48.2456 4.65505 48.0024 4.05218 48.0024 3.33963C48.0024 2.62708 48.2456 2.02421 48.7336 1.53184C49.2208 1.03948 49.8271 0.79248 50.5525 0.79248C51.2738 0.79248 51.8793 1.04029 52.369 1.53509C52.8586 2.0299 53.1035 2.63114 53.1035 3.33963C53.1035 4.05218 52.8595 4.65505 52.3723 5.14742ZM49.2043 4.73874C49.5715 5.10436 50.0207 5.28636 50.5525 5.28636C51.0844 5.28636 51.5344 5.10355 51.9008 4.73874C52.268 4.37312 52.4525 3.90675 52.4525 3.33963C52.4525 2.77252 52.268 2.30615 51.9008 1.94053C51.5344 1.57491 51.0844 1.39291 50.5525 1.39291C50.0207 1.39291 49.5715 1.57572 49.2043 1.94053C48.8378 2.30615 48.6534 2.77252 48.6534 3.33963C48.6534 3.90675 48.8378 4.37312 49.2043 4.73874Z" stroke="white" stroke-width="0.204511" stroke-miterlimit="10"></path><path d="M53.9985 5.77711V0.902175H54.7744L57.1864 4.69406H57.2136L57.1864 3.75482V0.902175H57.8241V5.77711H57.1582L54.6346 1.80079H54.6073L54.6346 2.74002V5.77711H53.9985Z" stroke="white" stroke-width="0.204511" stroke-miterlimit="10"></path><defs><filter id="filter0_ii_2_748" x="-4.19617e-05" y="0.79248" width="20.2398" height="22.634" filterUnits="userSpaceOnUse" color-interpolation-filters="sRGB"></filter><filter id="filter1_i_2_748" x="0.405807" y="12.1091" width="14.6266" height="11.3174" filterUnits="userSpaceOnUse" color-interpolation-filters="sRGB"></filter><linearGradient id="paint0_linear_2_748" x1="10.368" y1="2.17236" x2="-4.40009" y2="16.883" gradientUnits="userSpaceOnUse"><stop stop-color="#00A0FF"></stop><stop offset="0.0066" stop-color="#00A1FF"></stop><stop offset="0.2601" stop-color="#00BEFF"></stop><stop offset="0.5122" stop-color="#00D2FF"></stop><stop offset="0.7604" stop-color="#00DFFF"></stop><stop offset="1" stop-color="#00E3FF"></stop></linearGradient><linearGradient id="paint1_linear_2_748" x1="20.9154" y1="12.1092" x2="-0.294245" y2="12.1092" gradientUnits="userSpaceOnUse"><stop stop-color="#FFE000"></stop><stop offset="0.4087" stop-color="#FFBD00"></stop><stop offset="0.7754" stop-color="#FFA500"></stop><stop offset="1" stop-color="#FF9C00"></stop></linearGradient><linearGradient id="paint2_linear_2_748" x1="13.0216" y1="14.1278" x2="-7.00571" y2="34.0772" gradientUnits="userSpaceOnUse"><stop stop-color="#FF3A44"></stop><stop offset="1" stop-color="#C31162"></stop></linearGradient><linearGradient id="paint3_linear_2_748" x1="-2.34542" y1="-5.33595" x2="6.59733" y2="3.57204" gradientUnits="userSpaceOnUse"><stop stop-color="#32A071"></stop><stop offset="0.0685" stop-color="#2DA771"></stop><stop offset="0.4762" stop-color="#15CF74"></stop><stop offset="0.8009" stop-color="#06E775"></stop><stop offset="1" stop-color="#00F076"></stop></linearGradient></defs></svg>