<svg xmlns="http://www.w3.org/2000/svg" width="16" height="17" viewBox="0 0 16 17" fill="none"><path d="M1.33301 2.33337H5.33301C6.04025 2.33337 6.71853 2.61433 7.21863 3.11442C7.71872 3.61452 7.99967 4.2928 7.99967 5.00004V14.3334C7.99967 13.8029 7.78896 13.2942 7.41389 12.9192C7.03882 12.5441 6.53011 12.3334 5.99967 12.3334H1.33301V2.33337Z" stroke="#555555" stroke-width="1.5" stroke-linecap="round" stroke-linejoin="round"></path><path d="M14.6667 2.33337H10.6667C9.95942 2.33337 9.28115 2.61433 8.78105 3.11442C8.28095 3.61452 8 4.2928 8 5.00004V14.3334C8 13.8029 8.21071 13.2942 8.58579 12.9192C8.96086 12.5441 9.46957 12.3334 10 12.3334H14.6667V2.33337Z" stroke="#555555" stroke-width="1.5" stroke-linecap="round" stroke-linejoin="round"></path></svg>