<svg xmlns="http://www.w3.org/2000/svg" width="16" height="17" viewBox="0 0 16 17" fill="none"><path d="M8.22134 1.54933L8.22146 1.54937C10.1482 2.18535 12.0722 2.82782 13.9961 3.47025C14.1289 3.51459 14.2617 3.55893 14.3945 3.60327L8.22134 1.54933ZM8.22134 1.54933C8.08457 1.50431 7.91582 1.50717 7.78187 1.55032L8.22134 1.54933ZM3.91802 8.78222C4.18406 9.8804 4.80343 10.723 5.73709 11.3363M3.91802 8.78222L4.06381 8.7469L3.91803 8.78223C3.91803 8.78222 3.91803 8.78222 3.91802 8.78222ZM3.91802 8.78222C3.64414 7.6519 3.83155 6.59125 4.41511 5.60208M5.73709 11.3363L4.56076 5.65061C4.51218 5.63442 4.46363 5.61824 4.41511 5.60208M5.73709 11.3363C5.69458 11.3527 5.653 11.3691 5.61219 11.386L5.61214 11.386C4.43203 11.8758 3.48139 12.6509 2.76631 13.7106L2.76628 13.7106C2.6724 13.8499 2.62622 14.0035 2.64421 14.1521C2.66256 14.3036 2.74603 14.4339 2.87975 14.5212C2.87975 14.5213 2.87976 14.5213 2.87977 14.5213L2.96182 14.3957M5.73709 11.3363L3.70491 14.2572L3.58136 14.1721M4.41511 5.60208C3.91748 5.43626 3.42289 5.27137 2.92341 5.10485C2.70604 5.03238 2.48774 4.9596 2.26786 4.8863M4.41511 5.60208C4.44104 5.55813 4.46775 5.51433 4.49523 5.47067C3.9867 5.30122 3.48153 5.1328 2.97125 4.96268L2.26786 4.8863M2.26786 4.8863V9.22891C2.26786 9.2388 2.268 9.24982 2.26815 9.26168C2.26874 9.30908 2.26951 9.37004 2.26232 9.4271L2.26231 9.42716C2.22762 9.70172 1.9958 9.90684 1.72173 9.90502C1.44848 9.90319 1.21808 9.69358 1.1881 9.41896L1.33721 9.40268M2.26786 4.8863L1.18372 9.22328C1.18372 9.23389 1.18357 9.24571 1.1834 9.25844C1.18279 9.30512 1.18203 9.3639 1.18812 9.41913L1.33721 9.40268M1.33721 9.40268C1.35904 9.60265 1.5267 9.75371 1.72273 9.75502C1.91964 9.75633 2.08817 9.60876 2.1135 9.40836L1.33336 9.26659C1.3328 9.31208 1.33224 9.35763 1.33721 9.40268ZM2.96182 14.3957C3.16353 14.5275 3.38096 14.4642 3.54468 14.2263L3.58136 14.1721M2.96182 14.3957C2.76404 14.2665 2.73347 14.0276 2.89065 13.7945L2.96182 14.3957ZM3.58136 14.1721L3.70523 14.2567L3.70519 14.2568L14.3947 3.60332C14.5193 3.64481 14.6256 3.70891 14.7012 3.80103C14.7782 3.89479 14.8151 4.00741 14.8163 4.12894C14.8163 4.12904 14.8163 4.12914 14.8163 4.12924L14.6663 4.13068C14.6685 4.31886 14.5606 4.4529 14.3397 4.52668M3.58136 14.1721C5.35703 11.5927 8.96818 11.0771 11.3918 13.0571C11.8127 13.4007 12.1707 13.8006 12.4746 14.2503C12.6086 14.4485 12.7928 14.5092 12.9793 14.4276M12.9793 14.4276L13.0391 14.5651C13.0392 14.5651 13.0392 14.5651 13.0393 14.565C13.2005 14.4948 13.3101 14.364 13.3471 14.2046C13.3836 14.047 13.3461 13.8766 13.2454 13.726L13.2454 13.7258C12.5943 12.7539 11.7395 12.014 10.6803 11.5151C10.5456 11.4515 10.4061 11.3937 10.2654 11.3364C11.1891 10.7297 11.8081 9.89183 12.0779 8.79766L12.0779 8.79762C12.3582 7.65991 12.169 6.59498 11.588 5.60391C11.7547 5.54832 11.9213 5.49273 12.0879 5.43715C12.8545 5.18148 13.621 4.92578 14.3873 4.66893C14.3873 4.66892 14.3874 4.66892 14.3874 4.66891L14.3397 4.52668M12.9793 14.4276C13.219 14.3232 13.2836 14.053 13.1207 13.8093L12.9793 14.4276ZM14.3397 4.52668C13.5734 4.78353 12.8069 5.03923 12.0402 5.29495C11.8634 5.35394 11.6865 5.41293 11.5097 5.47193L14.3397 4.52668ZM5.39606 2.34107L5.39607 2.34106C5.60578 2.2712 5.81559 2.20093 6.02555 2.13062C6.60954 1.93504 7.19464 1.73909 7.78176 1.55035L5.39606 2.34107ZM5.39606 2.34107C5.075 2.44805 4.75399 2.55508 4.433 2.66211M5.39606 2.34107L4.433 2.66211M8.63126 10.8475L8.63149 10.8475C10.8043 10.4476 11.8569 7.7631 10.5401 5.98663C10.54 5.98659 10.54 5.98656 10.54 5.98652L8.63126 10.8475ZM8.63126 10.8475C8.48599 10.8745 8.34332 10.8899 8.20628 10.9048C8.14639 10.9113 8.08757 10.9177 8.03008 10.9248C6.75986 10.8573 5.81884 10.3317 5.24976 9.24574L5.24974 9.24571M8.63126 10.8475L5.24974 9.24571M5.24974 9.24571C4.67868 8.15652 4.76492 7.08051 5.42542 6.03262C5.46212 5.97458 5.48135 5.96858 5.484 5.96776L5.48401 5.96775C5.48941 5.96607 5.51166 5.96156 5.57993 5.98522L5.58004 5.98526M5.24974 9.24571L5.58004 5.98526M5.58004 5.98526C5.95833 6.11598 6.344 6.24421 6.72877 6.37213C7.06469 6.48382 7.39993 6.59528 7.72896 6.70797L7.72916 6.70804M5.58004 5.98526L7.72916 6.70804M7.72916 6.70804C7.91111 6.77008 8.0831 6.77389 8.26894 6.71072L7.72916 6.70804ZM10.4793 5.97058L10.479 5.97068C10.1108 6.09569 9.74183 6.21838 9.3734 6.3409L9.3731 6.341C9.00444 6.46359 8.6363 6.58601 8.269 6.7107L10.4793 5.97058ZM10.4793 5.97058C10.4999 5.96356 10.5117 5.96125 10.5175 5.96049L10.4793 5.97058ZM3.43874 4.13531C3.3597 4.16167 3.28066 4.18803 3.20162 4.21439L7.93042 5.62586M3.43874 4.13531C3.46799 4.14506 3.49725 4.15481 3.5265 4.16456C4.99407 4.65365 6.46113 5.14258 7.93042 5.62586M3.43874 4.13531C3.45028 4.13146 3.46182 4.12761 3.47335 4.12376C4.95315 3.63021 6.43315 3.13658 7.9139 2.64684C7.96959 2.62864 8.02619 2.62706 8.05392 2.63624L8.05406 2.63629C9.38296 3.07501 10.7109 3.51798 12.039 3.96097C12.2135 4.01917 12.388 4.07738 12.5625 4.13557M3.43874 4.13531L12.5625 4.13557M7.93042 5.62586C7.97444 5.64031 8.05005 5.63739 8.11652 5.61546L8.11658 5.61544C9.32015 5.21887 10.5218 4.81781 11.724 4.41655C11.9244 4.34967 12.1248 4.28278 12.3252 4.21591C12.4038 4.1896 12.4822 4.163 12.5625 4.13557M7.93042 5.62586L12.5625 4.13557M4.433 2.66211C3.51593 2.96789 2.59904 3.27361 1.68162 3.5779M4.433 2.66211L1.68162 3.5779M1.68162 3.5779C1.51729 3.63233 1.37334 3.69013 1.28476 3.80889M1.68162 3.5779L1.28476 3.80889M1.28476 3.80889C1.195 3.92922 1.18328 4.08297 1.18328 4.25599M1.28476 3.80889L1.18328 4.25599M1.18328 4.25599C1.18328 5.91158 1.18328 7.56763 1.18372 9.22324L1.18328 4.25599Z" fill="#555555" stroke="#555555" stroke-width="0.3"></path></svg>