<svg xmlns="http://www.w3.org/2000/svg" width="15" height="13" viewBox="0 0 15 13" fill="none"><g id="like"><path id="Combo shape" d="M13.1718 10.4801L12.6867 10.3588L13.1718 10.4801ZM14.2527 6.15671L13.7676 6.03545L14.2527 6.15671ZM9.66684 4.5L9.23495 4.24806C9.14474 4.40271 9.1441 4.59378 9.23327 4.74903C9.32244 4.90428 9.48781 5 9.66684 5V4.5ZM10.5381 3.00645L10.1062 2.75451V2.75452L10.5381 3.00645ZM8.33351 0.5V0C8.15408 0 7.98841 0.096143 7.89939 0.251931L8.33351 0.5ZM5.75468 5.01295L6.1888 5.26102V5.26102L5.75468 5.01295ZM5.96371 11.3646L6.24106 10.9486L5.96371 11.3646ZM6.99504 12.0521L7.27239 11.6361H7.27239L6.99504 12.0521ZM10.5848 12H8.47424V13H10.5848V12ZM12.6867 10.3588C12.4456 11.3234 11.579 12 10.5848 12V13C12.0379 13 13.3045 12.0111 13.6569 10.6014L12.6867 10.3588ZM13.7676 6.03545L12.6867 10.3588L13.6569 10.6014L14.7377 6.27798L13.7676 6.03545ZM12.9591 5C13.5013 5 13.8991 5.50949 13.7676 6.03545L14.7377 6.27798C15.027 5.12088 14.1519 4 12.9591 4V5ZM9.66684 5H12.9591V4H9.66684V5ZM10.1062 2.75452L9.23495 4.24806L10.0987 4.75194L10.97 3.25839L10.1062 2.75452ZM9.09845 1C9.99887 1 10.5599 1.97675 10.1062 2.75451L10.97 3.25839C11.8126 1.81396 10.7707 0 9.09845 0V1ZM8.33351 1H9.09845V0H8.33351V1ZM6.1888 5.26102L8.76763 0.748069L7.89939 0.251931L5.32056 4.76488L6.1888 5.26102ZM6.16684 5.34371C6.16684 5.3147 6.17441 5.2862 6.1888 5.26102L5.32056 4.76488C5.21983 4.94116 5.16684 5.14068 5.16684 5.34371H6.16684ZM6.16684 10.8099V5.34371H5.16684V10.8099H6.16684ZM6.24106 10.9486C6.19469 10.9176 6.16684 10.8656 6.16684 10.8099H5.16684C5.16684 11.2 5.36179 11.5642 5.68636 11.7806L6.24106 10.9486ZM7.27239 11.6361L6.24106 10.9486L5.68636 11.7806L6.71769 12.4682L7.27239 11.6361ZM8.47424 12C8.04649 12 7.62831 11.8734 7.27239 11.6361L6.71769 12.4682C7.23787 12.8149 7.84907 13 8.47424 13V12ZM3.3335 4H2.66683V5H3.3335V4ZM5.16683 5.83333C5.16683 4.82081 4.34602 4 3.3335 4V5C3.79373 5 4.16683 5.3731 4.16683 5.83333H5.16683ZM5.16683 10.5V5.83333H4.16683V10.5H5.16683ZM3.3335 12.3333C4.34602 12.3333 5.16683 11.5125 5.16683 10.5H4.16683C4.16683 10.9602 3.79373 11.3333 3.3335 11.3333V12.3333ZM2.66683 12.3333H3.3335V11.3333H2.66683V12.3333ZM0.833496 10.5C0.833496 11.5125 1.65431 12.3333 2.66683 12.3333V11.3333C2.20659 11.3333 1.8335 10.9602 1.8335 10.5H0.833496ZM0.833496 5.83333V10.5H1.8335V5.83333H0.833496ZM2.66683 4C1.65431 4 0.833496 4.82081 0.833496 5.83333H1.8335C1.8335 5.3731 2.20659 5 2.66683 5V4Z" fill="#356DF1"></path></g></svg>