<svg xmlns="http://www.w3.org/2000/svg" width="13" height="17" viewBox="0 0 13 17" fill="none"><g id="User"><g id="Combo shape"><mask id="path-1-inside-1_2599_1560" fill="white"><path fill-rule="evenodd" clip-rule="evenodd" d="M6.22222 7.61111C8.1859 7.61111 9.77778 6.01923 9.77778 4.05556C9.77778 2.09188 8.1859 0.5 6.22222 0.5C4.25854 0.5 2.66667 2.09188 2.66667 4.05556C2.66667 6.01923 4.25854 7.61111 6.22222 7.61111ZM6.22222 16.5C9.65866 16.5 12.4444 14.9081 12.4444 12.9444C12.4444 10.9808 9.65866 9.38888 6.22222 9.38888C2.78578 9.38888 0 10.9808 0 12.9444C0 14.9081 2.78578 16.5 6.22222 16.5Z"></path></mask><path d="M8.77778 4.05556C8.77778 5.46695 7.63362 6.61111 6.22222 6.61111V8.61111C8.73819 8.61111 10.7778 6.57152 10.7778 4.05556H8.77778ZM6.22222 1.5C7.63362 1.5 8.77778 2.64416 8.77778 4.05556H10.7778C10.7778 1.53959 8.73819 -0.5 6.22222 -0.5V1.5ZM3.66667 4.05556C3.66667 2.64416 4.81083 1.5 6.22222 1.5V-0.5C3.70626 -0.5 1.66667 1.53959 1.66667 4.05556H3.66667ZM6.22222 6.61111C4.81083 6.61111 3.66667 5.46695 3.66667 4.05556H1.66667C1.66667 6.57152 3.70626 8.61111 6.22222 8.61111V6.61111ZM11.4444 12.9444C11.4444 13.4125 11.1033 14.0318 10.1259 14.5903C9.17668 15.1327 7.79866 15.5 6.22222 15.5V17.5C8.08223 17.5 9.81531 17.0713 11.1181 16.3268C12.3927 15.5985 13.4444 14.44 13.4444 12.9444H11.4444ZM6.22222 10.3889C7.79866 10.3889 9.17668 10.7561 10.1259 11.2985C11.1033 11.8571 11.4444 12.4763 11.4444 12.9444H13.4444C13.4444 11.4489 12.3927 10.2903 11.1181 9.56203C9.81531 8.81756 8.08223 8.38888 6.22222 8.38888V10.3889ZM1 12.9444C1 12.4763 1.34112 11.8571 2.31859 11.2985C3.26776 10.7561 4.64579 10.3889 6.22222 10.3889V8.38888C4.36222 8.38888 2.62913 8.81756 1.32631 9.56203C0.0517729 10.2903 -1 11.4489 -1 12.9444H1ZM6.22222 15.5C4.64579 15.5 3.26776 15.1327 2.31859 14.5903C1.34112 14.0318 1 13.4125 1 12.9444H-1C-1 14.44 0.0517729 15.5985 1.32631 16.3268C2.62913 17.0713 4.36222 17.5 6.22222 17.5V15.5Z" fill="#356DF1" mask="url(#path-1-inside-1_2599_1560)"></path></g></g></svg>