<svg xmlns="http://www.w3.org/2000/svg" width="24" height="25" viewBox="0 0 24 25" fill="none"><path d="M21.8 22.1535C19 18.0535 17.2 14.9535 14.4 10.8535L14.3 10.7535C16.9 7.65352 18.6 5.65352 21.2 2.55352C21.2738 2.47971 21.2215 2.35352 21.1172 2.35352H21.1C20.7 2.35352 20.4 2.35352 20 2.35352C19.8 2.35352 19.7 2.35352 19.5 2.35352C19.3 2.35352 19.1 2.45352 19 2.65352C17.1 4.85352 16.2 6.05352 14.3 8.25352C14 8.65352 13.7 8.95352 13.3 9.35352C11.4 6.65352 10.7 5.15352 8.9 2.55352C8.8 2.45352 8.7 2.35352 8.5 2.35352H4H3.5H2.3606C2.20645 2.35352 2.11451 2.5253 2.2 2.65356C5 6.65356 7 9.65356 9.5 13.6535L9.4 13.7535C7.2 16.3535 5.9 17.9535 3.7 20.5535C3.2 21.1535 2.7 21.7535 2.2 22.3535C2.1262 22.4273 2.17847 22.5535 2.28284 22.5535H4.3V22.4535C5.2 21.4535 6 20.4535 6.9 19.4535C8.4 17.6535 8.9 16.9535 10.5 15.1535L10.6 15.0535C12.5 17.7535 13.5 19.4535 15.3 22.2535L15.4 22.3535V22.4535H21.6394C21.7936 22.4535 21.8855 22.2817 21.8 22.1535ZM7.8 4.15352C12 10.1535 14.1 14.0535 18.3 20.0535C18.5 20.3535 18.7 20.5535 18.9 20.8535C18.4 20.8535 17.8 20.8535 17.3 20.8535C17 20.8535 16.8 20.8535 16.5 20.8535C16.4 20.8535 16.4 20.8535 16.3 20.7535C12.3 14.9535 10.2 11.1535 6.2 5.35352C5.9 4.85352 5.5 4.45352 5.2 3.95352H5.5C6.2 3.95352 6.9 3.95352 7.7 3.95352C7.7 4.05352 7.7 4.05352 7.8 4.15352Z" fill="#DDDDDD"></path></svg>