<svg xmlns="http://www.w3.org/2000/svg" width="24" height="25" viewBox="0 0 24 25" fill="none"><path fill-rule="evenodd" clip-rule="evenodd" d="M10.9341 3.58746C12.0125 2.50912 13.475 1.90332 15 1.90332H18C18.4142 1.90332 18.75 2.23911 18.75 2.65332V6.65332C18.75 7.06753 18.4142 7.40332 18 7.40332H15C14.9337 7.40332 14.8701 7.42966 14.8232 7.47654C14.7763 7.52343 14.75 7.58702 14.75 7.65332V9.90332H18C18.231 9.90332 18.449 10.0097 18.5912 10.1918C18.7333 10.3738 18.7836 10.6112 18.7276 10.8352L17.7276 14.8352C17.6441 15.1691 17.3442 15.4033 17 15.4033H14.75V22.6533C14.75 23.0675 14.4142 23.4033 14 23.4033H10C9.58579 23.4033 9.25 23.0675 9.25 22.6533V15.4033H7C6.58579 15.4033 6.25 15.0675 6.25 14.6533V10.6533C6.25 10.2391 6.58579 9.90332 7 9.90332H9.25V7.65332C9.25 6.12833 9.8558 4.66579 10.9341 3.58746ZM15 3.40332C13.8728 3.40332 12.7918 3.85109 11.9948 4.64812C11.1978 5.44515 10.75 6.52615 10.75 7.65332V10.6533C10.75 11.0675 10.4142 11.4033 10 11.4033H7.75V13.9033H10C10.4142 13.9033 10.75 14.2391 10.75 14.6533V21.9033H13.25V14.6533C13.25 14.2391 13.5858 13.9033 14 13.9033H16.4144L17.0394 11.4033H14C13.5858 11.4033 13.25 11.0675 13.25 10.6533V7.65332C13.25 7.18919 13.4344 6.74407 13.7626 6.41588C14.0908 6.0877 14.5359 5.90332 15 5.90332H17.25V3.40332H15Z" fill="#DDDDDD"></path></svg>