<svg xmlns="http://www.w3.org/2000/svg" width="24" height="25" viewBox="0 0 24 25" fill="none"><path fill-rule="evenodd" clip-rule="evenodd" d="M12 3.90332C12 3.90332 12.0001 3.90332 12.0001 4.65332L12.0001 5.40332L11.9241 5.40343C11.8738 5.40354 11.7997 5.40376 11.7046 5.40421C11.5144 5.4051 11.2405 5.40689 10.9062 5.41046C10.2374 5.41762 9.32869 5.43192 8.36736 5.46049C7.40483 5.48909 6.3956 5.53182 5.52402 5.5954C4.63585 5.66018 3.95286 5.74283 3.59907 5.83647C3.25737 5.93412 2.94726 6.11978 2.69977 6.37492C2.45644 6.62578 2.28209 6.93511 2.19342 7.27288C1.88998 8.96473 1.74158 10.6808 1.75007 12.3996L1.75012 12.408C1.73927 14.1356 1.88687 15.8605 2.19113 17.561C2.289 17.8837 2.46582 18.1772 2.7058 18.4147C2.95344 18.6598 3.25999 18.837 3.59593 18.9293C3.9488 19.0233 4.63321 19.1063 5.52402 19.1712C6.3956 19.2348 7.40483 19.2775 8.36736 19.3062C9.32869 19.3347 10.2374 19.349 10.9062 19.3562C11.2405 19.3598 11.5144 19.3615 11.7046 19.3624C11.7997 19.3629 11.8738 19.3631 11.9241 19.3632L12.0001 19.3633L12.0001 20.1133C12.0001 20.8633 12 20.8633 12 20.8633L11.9207 20.8632C11.8693 20.8631 11.794 20.8629 11.6976 20.8624C11.5048 20.8615 11.2278 20.8597 10.8902 20.8561C10.2152 20.8489 9.29648 20.8344 8.32281 20.8055C7.35034 20.7766 6.31707 20.7331 5.4149 20.6673C4.5337 20.603 3.71405 20.5136 3.20631 20.3779L3.20215 20.3767C2.61655 20.2165 2.08217 19.9079 1.65065 19.4809C1.21913 19.0538 0.905054 18.5227 0.738764 17.9387C0.731985 17.9149 0.726388 17.8908 0.721995 17.8665C0.396807 16.0637 0.238829 14.2347 0.250072 12.4028C0.241345 10.5847 0.399311 8.76954 0.721989 6.98022C0.724955 6.96377 0.72847 6.94743 0.732527 6.93122C0.883363 6.32859 1.19056 5.77644 1.62309 5.33053C2.05561 4.88463 2.59815 4.56076 3.19591 4.39165L3.20629 4.38871C3.71403 4.25292 4.5337 4.16364 5.4149 4.09937C6.31707 4.03357 7.35034 3.99005 8.32281 3.96115C9.29648 3.93222 10.2152 3.91777 10.8902 3.91055C11.2278 3.90694 11.5048 3.90513 11.6976 3.90423C11.794 3.90377 11.8693 3.90355 11.9207 3.90343L12 3.90332ZM20.4011 18.9302C20.0473 19.0238 19.3643 19.1065 18.4762 19.1712C17.6046 19.2348 16.5953 19.2775 15.6328 19.3062C14.6715 19.3347 13.7627 19.349 13.0939 19.3562C12.7597 19.3598 12.4857 19.3615 12.2955 19.3624C12.2005 19.3629 12.1263 19.3631 12.0761 19.3632L12.0001 19.3633L12.0001 20.1133C12.0001 20.8633 12 20.8633 12 20.8633L12.0794 20.8632C12.1308 20.8631 12.2062 20.8629 12.3026 20.8624C12.4954 20.8615 12.7724 20.8597 13.11 20.8561C13.7849 20.8489 14.7037 20.8344 15.6774 20.8055C16.6498 20.7766 17.6831 20.7331 18.5853 20.6673C19.4665 20.603 20.2861 20.5136 20.7939 20.3779L20.8043 20.375C21.402 20.2059 21.9446 19.882 22.3771 19.4361C22.8096 18.9902 23.1168 18.4381 23.2676 17.8354C23.2717 17.8192 23.2752 17.8029 23.2782 17.7864C23.5984 16.0104 23.7564 14.209 23.7501 12.4044C23.7614 10.5723 23.6034 8.74317 23.2782 6.94018C23.2752 6.92375 23.2717 6.90742 23.2676 6.89122C23.1168 6.28859 22.8096 5.73644 22.3771 5.29053C21.9446 4.84463 21.402 4.52076 20.8043 4.35165C20.7955 4.34918 20.7868 4.34688 20.778 4.34473C20.2762 4.2222 19.462 4.14087 18.5805 4.08217C17.6797 4.02217 16.6475 3.98247 15.6754 3.9561C14.7023 3.92969 13.784 3.91651 13.1093 3.90992C12.7718 3.90662 12.495 3.90497 12.3023 3.90415C12.2059 3.90373 12.1306 3.90353 12.0793 3.90342L12 3.90332C12 3.90332 12.0001 3.90332 12.0001 4.65332L12.0001 5.40332L12.0763 5.40342L12.2959 5.40413C12.4862 5.40495 12.7602 5.40658 13.0946 5.40985C13.7637 5.41638 14.6729 5.42945 15.6347 5.45554C16.5977 5.48167 17.608 5.52072 18.4809 5.57885C19.3622 5.63755 20.047 5.71258 20.4089 5.7987C20.7475 5.89694 21.0548 6.08172 21.3004 6.33492C21.5437 6.58578 21.7181 6.89512 21.8068 7.2329C22.1126 8.93755 22.261 10.6667 22.2501 12.3986L22.2501 12.406C22.2562 14.1119 22.1078 15.8147 21.8067 17.4938C21.7181 17.8315 21.5437 18.1409 21.3004 18.3917C21.0529 18.6469 20.7428 18.8325 20.4011 18.9302Z" fill="#DDDDDD"></path><path fill-rule="evenodd" clip-rule="evenodd" d="M9.37289 8.48452C9.60374 8.35023 9.8886 8.34884 10.1208 8.48086L15.8708 11.7509C16.1052 11.8842 16.25 12.1331 16.25 12.4028C16.25 12.6725 16.1052 12.9214 15.8708 13.0548L10.1208 16.3248C9.8886 16.4568 9.60374 16.4554 9.37289 16.3211C9.14203 16.1868 9 15.9399 9 15.6728V9.13281C9 8.86574 9.14203 8.61881 9.37289 8.48452ZM10.5 10.4221V14.3835L13.9828 12.4028L10.5 10.4221Z" fill="#DDDDDD"></path></svg>