<svg xmlns="http://www.w3.org/2000/svg" width="24" height="25" viewBox="0 0 24 25" fill="none"><path fill-rule="evenodd" clip-rule="evenodd" d="M6.9856 3.31055C4.63839 3.31055 2.7356 5.21334 2.7356 7.56055V17.5605C2.7356 19.9078 4.63839 21.8105 6.9856 21.8105H16.9856C19.3328 21.8105 21.2356 19.9078 21.2356 17.5605V7.56055C21.2356 5.21334 19.3328 3.31055 16.9856 3.31055H6.9856ZM1.2356 7.56055C1.2356 4.38491 3.80996 1.81055 6.9856 1.81055H16.9856C20.1612 1.81055 22.7356 4.38491 22.7356 7.56055V17.5605C22.7356 20.7362 20.1612 23.3105 16.9856 23.3105H6.9856C3.80996 23.3105 1.2356 20.7362 1.2356 17.5605V7.56055Z" fill="#DDDDDD"></path><path fill-rule="evenodd" clip-rule="evenodd" d="M12.5055 9.30274C11.8293 9.20246 11.1387 9.31796 10.532 9.63281C9.92519 9.94765 9.43314 10.4458 9.1258 11.0564C8.81846 11.667 8.71149 12.359 8.82009 13.0339C8.92869 13.7088 9.24734 14.3323 9.73072 14.8157C10.2141 15.2991 10.8376 15.6177 11.5125 15.7263C12.1874 15.8349 12.8794 15.7279 13.49 15.4206C14.1006 15.1133 14.5987 14.6212 14.9136 14.0144C15.2284 13.4077 15.3439 12.7171 15.2437 12.0409C15.1414 11.3511 14.82 10.7125 14.3269 10.2195C13.8339 9.72643 13.1953 9.40502 12.5055 9.30274ZM9.8411 8.30137C10.7279 7.84122 11.7373 7.67241 12.7256 7.81896C13.7337 7.96845 14.6669 8.4382 15.3876 9.15883C16.1082 9.87945 16.5779 10.8127 16.7274 11.8208C16.874 12.8091 16.7052 13.8185 16.245 14.7053C15.7849 15.5921 15.0568 16.3113 14.1644 16.7604C13.2719 17.2096 12.2606 17.366 11.2742 17.2073C10.2878 17.0485 9.37653 16.5828 8.67006 15.8763C7.96359 15.1699 7.49787 14.2586 7.33914 13.2722C7.18041 12.2858 7.33676 11.2745 7.78595 10.382C8.23513 9.4896 8.95428 8.76153 9.8411 8.30137Z" fill="#DDDDDD"></path><path fill-rule="evenodd" clip-rule="evenodd" d="M16.7356 7.06055C16.7356 6.64633 17.0714 6.31055 17.4856 6.31055H17.4956C17.9098 6.31055 18.2456 6.64633 18.2456 7.06055C18.2456 7.47476 17.9098 7.81055 17.4956 7.81055H17.4856C17.0714 7.81055 16.7356 7.47476 16.7356 7.06055Z" fill="#DDDDDD"></path></svg>