<svg xmlns="http://www.w3.org/2000/svg" width="24" height="25" viewBox="0 0 24 25" fill="none"><path d="M21.7999 8.85312C21.7999 8.25312 21.7999 7.75312 21.7999 7.15312C21.7999 6.95312 21.7 6.65312 21.6 6.55312C21.5 6.35313 21.2 6.35312 21 6.25312C20.7999 6.25312 20.6 6.25312 20.5 6.25312C18.5 5.95312 17.1 4.35313 17 2.35313C17 2.05313 16.9 1.85312 16.7 1.65312C16.5 1.45312 16.3 1.45312 16 1.45312H12.8C12.5 1.45312 12.2 1.55312 12 1.65312C11.8 1.85312 11.8 2.15312 11.8 2.45312V16.2531C11.8 16.4531 11.8 16.7531 11.7 16.9531C11.5 17.9531 10.5 18.6531 9.49995 18.6531C9.39995 18.6531 9.19995 18.6531 9.09995 18.6531C7.99995 18.4531 7.29995 17.5531 7.29995 16.4531V16.2531C7.39995 15.1531 8.29995 14.2531 9.49995 14.2531C9.69995 14.2531 9.99995 14.1531 10.1 14.0531C10.3 13.9531 10.4 13.6531 10.4 13.4531C10.4 12.8531 10.4 12.2531 10.4 11.7531C10.4 11.1531 10.4 10.5531 10.4 10.0531C10.4 9.85312 10.3 9.55313 10.1 9.45312C9.99995 9.15312 9.79995 9.05312 9.49995 9.05312C8.79995 9.05312 7.99995 9.15312 7.29995 9.45312C4.19995 10.4531 2.19995 13.3531 2.19995 16.4531C2.19995 16.8531 2.19995 17.3531 2.29995 17.7531C2.79995 20.6531 4.99995 22.9531 7.79995 23.6531C8.19995 23.7531 8.59995 23.7531 8.89995 23.8531H9.99995C10.3 23.8531 10.6 23.7531 10.8 23.7531C14.1 23.1531 16.7 20.1531 16.8 16.7531C16.8 15.7531 16.8 14.6531 16.8 13.6531C16.8 12.6531 16.8 11.6531 16.8 10.5531C18 11.1531 19.3 11.4531 20.7 11.4531C21 11.4531 21.1999 11.3531 21.2999 11.2531C21.5 11.0531 21.6 10.8531 21.6 10.6531C21.8 10.0531 21.7999 9.45312 21.7999 8.85312ZM16.7 8.45312C16.5 8.35313 16.3 8.25312 16.1 8.25312H15.8C15.4 8.35312 15.2 8.75312 15.2 9.15312V10.8531C15.2 11.9531 15.2 13.0531 15.2 14.2531C15.2 15.0531 15.2 15.9531 15.2 16.7531C15.2 19.3531 13.1 21.7531 10.5 22.1531C10.2 22.1531 9.89995 22.2531 9.59995 22.2531C6.79995 22.2531 4.39995 20.2531 3.89995 17.3531C3.89995 17.0531 3.79995 16.8531 3.79995 16.5531C3.79995 13.8531 5.79995 11.4531 8.49995 10.9531H8.59995V12.7531C6.79995 13.1531 5.59995 14.6531 5.49995 16.4531V16.6531C5.49995 18.5531 7.09995 20.3531 8.99995 20.5531C9.09995 20.5531 9.29995 20.5531 9.39995 20.5531C11.3 20.5531 13 19.2531 13.3 17.2531C13.4 16.9531 13.4 16.6531 13.4 16.4531C13.4 12.0531 13.4 7.75313 13.4 3.45312V3.25312H15.2C15.2 3.45312 15.3 3.65313 15.3 3.85313C16 6.15312 17.5999 7.55312 19.9 7.95312V9.75313C19.5 9.65312 19 9.55313 18.6 9.45312C18 9.25313 17.3 8.85313 16.7 8.45312Z" fill="#DDDDDD"></path></svg>