<svg xmlns="http://www.w3.org/2000/svg" width="32" height="32" viewBox="0 0 32 32" fill="none"><g clip-path="url(#clip0_1289_1031)"><path d="M31.9999 12.8125V11.625C31.9182 11.2733 31.8624 10.9142 31.7516 10.5717C31.0257 8.34 29.5191 6.95667 27.2324 6.43C27.1424 6.41 27.0532 6.38583 27.0299 6.38C26.9199 5.66083 26.8991 4.95083 26.6966 4.2975C25.9491 1.89167 24.3007 0.480833 21.8174 0.0566667C21.7582 0.0466667 21.7024 0.0191667 21.6449 0H20.4599C20.1157 0.0733333 19.7666 0.1275 19.4291 0.223333C18.1032 0.598333 17.0357 1.3525 16.2199 2.46417C16.1657 2.53833 16.1107 2.6125 16.0399 2.70833C15.9849 2.64333 15.9374 2.59417 15.8974 2.53917C14.8749 1.12833 13.5116 0.285 11.7799 0.0508333C11.7199 0.0425 11.6616 0.0175 11.6024 0H10.4174C9.83156 0.1675 9.22072 0.273333 8.66656 0.5125C6.44822 1.47 5.08156 3.63917 5.11739 6.06C5.11822 6.1525 5.11739 6.245 5.11739 6.3575C2.91489 6.78917 1.30406 7.98833 0.479889 10.0933C-0.345944 12.2042 0.0348891 14.1767 1.37489 16C0.0423891 17.7925 -0.347611 19.7675 0.467389 21.8775C1.28156 23.9867 2.88739 25.1992 5.05489 25.6275C5.13239 26.2458 5.15489 26.8633 5.29322 27.4542C5.85156 29.8433 7.82572 31.6125 10.2457 31.9433C10.3041 31.9517 10.3599 31.9808 10.4174 32H11.6024C12.0349 31.8983 12.4774 31.8258 12.8991 31.6908C14.1032 31.3033 15.0699 30.5767 15.8241 29.5617C15.8849 29.4792 15.9449 29.3958 16.0216 29.2917C16.0716 29.3475 16.1149 29.3875 16.1482 29.4342C17.1766 30.8717 18.5591 31.7208 20.3141 31.9525C20.3632 31.9592 20.4116 31.9842 20.4599 32H21.6449C21.9566 31.9308 22.2716 31.8758 22.5782 31.79C25.2191 31.0542 26.9866 28.6758 26.9449 25.9217C26.9432 25.8392 26.9441 25.7558 26.9441 25.6375C27.0807 25.6083 27.2182 25.5792 27.3549 25.5492C29.7641 25.0208 31.6091 23.0083 31.9441 20.5467C31.9516 20.4875 31.9807 20.4325 31.9999 20.375V19.125C31.9474 18.8842 31.8966 18.6417 31.8416 18.4017C31.6399 17.515 31.2374 16.725 30.6732 16C31.2366 15.2758 31.6407 14.4858 31.8407 13.5992C31.8999 13.3383 31.9474 13.075 31.9999 12.8125ZM15.0941 26.0192C15.0899 28.3633 13.2349 30.175 10.9066 30.1233C8.67406 30.0733 6.85072 28.0783 6.98656 25.8433C6.99822 25.65 7.06906 25.5833 7.25489 25.5433C8.32489 25.3117 9.25822 24.8125 10.0574 24.0617C10.5174 23.6308 10.5774 23.0617 10.2041 22.6517C9.83739 22.25 9.25822 22.2617 8.78989 22.6817C7.02822 24.2592 4.55989 24.1783 3.00656 22.4925C1.52156 20.88 1.58489 18.395 3.15072 16.8525C3.79906 16.2142 3.79739 15.7875 3.14489 15.1408C1.56489 13.5767 1.52489 11.0733 3.05406 9.455C4.56906 7.8525 7.06406 7.76083 8.70656 9.235C8.88656 9.39667 9.10572 9.55 9.33239 9.615C9.73906 9.7325 10.1399 9.52167 10.3332 9.1625C10.5374 8.785 10.4682 8.33667 10.1424 8.01917C9.34239 7.23833 8.40072 6.70917 7.30739 6.47167C7.06906 6.42 6.98989 6.33 6.98322 6.08583C6.92406 3.8325 8.70239 1.92167 10.9141 1.87667C13.2174 1.83 15.0857 3.62833 15.0924 5.925C15.1024 9.27917 15.0949 12.6333 15.0949 15.9875C15.0957 19.3317 15.0991 22.675 15.0941 26.0192ZM28.8707 16.8142C30.0807 17.9833 30.4541 19.7142 29.8316 21.2658C29.2099 22.8167 27.7174 23.8342 26.0274 23.8025C25.3591 23.79 24.9807 24.1608 24.9207 24.5817C24.8949 24.7608 24.9282 24.9542 24.9657 25.1342C25.3041 26.7883 24.8382 28.1842 23.5332 29.2317C22.2449 30.265 20.7757 30.4358 19.2891 29.72C17.7824 28.9958 17.0082 27.7358 16.9699 26.0517C16.9507 25.1983 16.9666 24.3433 16.9666 23.4892V23.1883C17.6182 23.1883 18.2391 23.1775 18.8591 23.2C18.9449 23.2025 19.0541 23.3492 19.1041 23.4533C19.6207 24.5117 20.7174 25.15 21.8741 25.0542C23.0191 24.96 24.0057 24.1558 24.3316 23.0517C24.7457 21.6483 24.0174 20.155 22.6632 19.6308C21.2957 19.1008 19.7641 19.6942 19.1341 21.0217C19.0207 21.26 18.8916 21.3258 18.6457 21.3183C18.0974 21.3 17.5491 21.3125 16.9841 21.3125V16.9375H17.2749C18.5841 16.9375 19.8941 16.9408 21.2041 16.9342C21.3999 16.9325 21.5074 16.9725 21.5999 17.1742C22.2057 18.4867 23.6607 19.1158 25.0141 18.6725C26.3399 18.2383 27.1424 16.8867 26.8957 15.5008C26.6482 14.11 25.4182 13.1133 23.9941 13.1967C22.8849 13.2617 22.0841 13.8308 21.5924 14.8292C21.5266 14.9617 21.4866 15.07 21.2916 15.0683C19.8991 15.0567 18.5057 15.0617 17.1124 15.0608C17.0732 15.0608 17.0341 15.0517 16.9816 15.0442V10.6892C17.6216 10.6892 18.2616 10.6817 18.9007 10.7C18.9691 10.7017 19.0524 10.8417 19.0966 10.9333C19.9491 12.72 22.2857 13.1308 23.6449 11.7108C24.4691 10.8492 24.6841 9.81583 24.2416 8.70917C23.8041 7.61667 22.9491 7.00417 21.7732 6.95083C20.5832 6.89583 19.6916 7.44333 19.1441 8.50333C19.0207 8.7425 18.9024 8.83167 18.6349 8.82C18.0966 8.79583 17.5557 8.8125 16.9141 8.8125C16.9691 7.52167 16.8816 6.2425 17.1074 5.02083C17.5124 2.82833 19.7607 1.475 21.9016 1.97417C24.1124 2.48917 25.4682 4.64 24.9691 6.83917C24.7707 7.715 25.1449 8.19 26.0324 8.18833C27.7199 8.18417 29.2116 9.185 29.8341 10.7383C30.4549 12.2867 30.0791 14.0167 28.8674 15.1892C28.2816 15.755 28.2832 16.2458 28.8707 16.8142ZM20.7107 22.2342C20.7191 21.7283 21.1474 21.3092 21.6524 21.3133C22.1566 21.3175 22.5791 21.7442 22.5799 22.2492C22.5799 22.755 22.1574 23.1817 21.6532 23.1867C21.1374 23.1908 20.7024 22.7517 20.7107 22.2342ZM23.2057 15.9917C23.2099 15.4858 23.6349 15.0633 24.1399 15.0633C24.6441 15.0633 25.0699 15.4867 25.0749 15.9917C25.0791 16.5092 24.6407 16.945 24.1249 16.9367C23.6199 16.9275 23.2016 16.4975 23.2057 15.9917ZM20.7107 9.74417C20.7132 9.23917 21.1382 8.815 21.6424 8.81333C22.1466 8.81167 22.5741 9.23417 22.5799 9.73917C22.5857 10.2567 22.1482 10.6933 21.6316 10.6867C21.1274 10.6792 20.7082 10.2508 20.7107 9.74417Z" fill="#FFB606"></path></g><defs><clipPath id="clip0_1289_1031"><rect width="32" height="32" fill="white"></rect></clipPath></defs></svg>