<svg xmlns="http://www.w3.org/2000/svg" width="32" height="32" viewBox="0 0 32 32" fill="none"><path d="M31.9325 19.7001C31.655 18.5076 30.6742 17.6268 29.4617 17.5168C29.0525 17.4793 28.6367 17.511 28.1942 17.511C28.1942 16.951 28.2017 16.4326 28.1925 15.9151C28.1717 14.721 27.2358 13.7718 26.05 13.7535C25.1875 13.7401 24.3242 13.7401 23.4617 13.7543C22.4433 13.771 21.5858 14.4951 21.3867 15.4985C21.3375 15.7451 21.3325 16.001 21.3042 16.2868C20.0367 15.2668 18.6225 14.6651 16.9992 14.4326C18.5117 13.006 19.335 11.3026 19.3908 9.26763C19.4467 7.21929 18.74 5.44929 17.3 3.99346C14.7475 1.41263 10.6775 1.15679 7.83418 3.38679C6.42834 4.48929 5.51751 5.91929 5.19251 7.67596C4.70584 10.311 5.51418 12.5493 7.43251 14.4318C7.22418 14.4685 7.06001 14.4935 6.89751 14.5268C2.83417 15.3635 0.066675 18.7643 0.0625083 22.9285C0.0608417 24.9393 0.0625083 26.9493 0.0625083 28.9593C0.0625083 29.7935 0.396675 30.1251 1.23751 30.1251H25.5008C26.7383 30.1251 27.9758 30.1343 29.2125 30.1218C30.5317 30.1093 31.6342 29.2085 31.9325 27.9251C31.9517 27.8451 31.9775 27.7668 32 27.6876V19.9376C31.9775 19.8585 31.9517 19.7801 31.9325 19.7001ZM23.2267 15.8876C23.2317 15.7943 23.4358 15.641 23.5517 15.6376C24.3592 15.616 25.1692 15.6243 25.9775 15.6268C26.1858 15.6276 26.3158 15.7401 26.3192 15.9501C26.3275 16.456 26.3225 16.9626 26.3225 17.4951H23.2108C23.2108 16.9568 23.195 16.421 23.2267 15.8876ZM6.92417 9.02513C6.93751 6.10846 9.33168 3.74013 12.255 3.75013C15.1683 3.76096 17.5367 6.15679 17.5283 9.08346C17.5192 12.0035 15.1317 14.3801 12.2125 14.3751C9.28501 14.3693 6.91084 11.9676 6.92417 9.02513ZM13.3008 16.2651C13.1958 16.8935 13.0942 17.5026 12.9908 18.1251C12.5158 18.1251 12.0708 18.131 11.6258 18.1185C11.56 18.1168 11.45 18.036 11.4392 17.9776C11.3358 17.4168 11.2492 16.8535 11.1525 16.2651H13.3008ZM1.93334 28.2368V27.9126C1.93334 26.236 1.93084 24.5593 1.93417 22.8835C1.94084 19.586 4.20251 16.8868 7.44418 16.3393C8.02334 16.241 8.62168 16.256 9.24084 16.2168C9.34667 16.8418 9.40168 17.4351 9.55251 18.0026C9.82501 19.0285 9.58834 20.0268 9.46001 21.031C9.25251 22.651 9.02584 24.2685 8.80584 25.8868C8.76251 26.2068 8.85918 26.4776 9.06001 26.7251C9.45334 27.2093 9.83834 27.6993 10.2675 28.2368H1.93334ZM13.5375 26.0535C13.0967 26.5751 12.68 27.1168 12.2267 27.6851C11.725 27.0576 11.245 26.4618 10.7742 25.8585C10.7308 25.8035 10.725 25.7001 10.735 25.6235C10.9817 23.7593 11.2325 21.8951 11.485 20.0143H12.9675C13.1167 21.126 13.2642 22.2268 13.4117 23.3268C13.505 24.0276 13.59 24.7293 13.6975 25.4285C13.735 25.671 13.7033 25.8576 13.5375 26.0535ZM17.5333 27.2801C17.5342 27.5885 17.5992 27.8968 17.6383 28.2376H14.185C14.5167 27.821 14.79 27.4176 15.125 27.0735C15.5983 26.586 15.6917 26.0518 15.5917 25.391C15.2817 23.3335 15.0092 21.2693 14.76 19.2043C14.7158 18.836 14.845 18.4451 14.9042 18.0668C14.9967 17.4718 15.0983 16.8785 15.1992 16.2693C16.8883 16.146 18.4233 16.5051 19.8325 17.5201C19.7267 17.5576 19.6558 17.586 19.5842 17.6076C18.3333 17.981 17.5333 19.0351 17.53 20.3443C17.5242 22.656 17.5242 24.9685 17.5333 27.2801ZM19.4242 20.1501C19.4633 19.676 19.8858 19.3768 20.4042 19.376C21.9933 19.3735 23.5825 19.3751 25.1717 19.3751C26.47 19.3751 27.7683 19.3743 29.0667 19.376C29.7542 19.376 30.1258 19.7485 30.1283 20.4343C30.13 20.901 30.1283 21.3676 30.1283 21.8643H19.4125C19.4125 21.2851 19.3767 20.7143 19.4242 20.1501ZM30.12 27.3776C30.1108 27.8935 29.6825 28.2468 29.1292 28.2485C27.9342 28.2526 26.74 28.2501 25.545 28.2501C23.8625 28.2501 22.1792 28.251 20.4967 28.2501C19.7642 28.2493 19.4008 27.8893 19.4 27.1635C19.3992 26.0401 19.4 24.9176 19.4 23.7726H30.1258C30.1258 24.9868 30.1392 26.1826 30.12 27.3776Z" fill="#FFB606"></path></svg>