<svg xmlns="http://www.w3.org/2000/svg" width="32" height="32" viewBox="0 0 32 32" fill="none"><g clip-path="url(#clip0_1289_141)"><path d="M31.2624 18.0522C30.8241 17.804 30.3753 17.5732 29.9446 17.312C29.8537 17.2568 29.777 17.1079 29.7751 17.0003C29.76 16.3355 29.76 15.6697 29.7779 15.0049C29.7808 14.8881 29.8631 14.7272 29.9607 14.6674C30.3791 14.41 30.8194 14.1856 31.2473 13.9437C31.9214 13.5631 32.0956 12.9571 31.7055 12.307C30.9671 11.0775 30.2239 9.85087 29.474 8.62696C29.0868 7.99432 28.4771 7.84444 27.8059 8.20398C27.3713 8.43754 26.9377 8.67018 26.5117 8.91754C26.3526 9.01041 26.2456 9.01777 26.0724 8.91386C25.4816 8.55984 24.8757 8.22696 24.2622 7.90972C24.0918 7.82145 24.0198 7.73777 24.0246 7.54926C24.0378 7.0665 24.0388 6.58283 24.0265 6.10007C24.0085 5.41409 23.5351 4.96627 22.8326 4.95708C22.5136 4.95248 22.1945 4.95616 21.8755 4.95616H20.568V4.07708C20.5661 1.93363 19.1356 0.541447 16.9316 0.540527H3.78315C1.5867 0.541447 0.154275 1.94007 0.154275 4.08443C0.153328 12.0293 0.153328 19.9741 0.154275 27.918C0.154275 30.0412 1.59143 31.4463 3.76421 31.4472C6.44635 31.4481 9.12753 31.4472 11.8087 31.4472C13.6047 31.4472 15.4007 31.4591 17.1957 31.4435C18.8648 31.4288 20.2499 30.2766 20.5036 28.6821C20.5879 28.1543 20.568 27.61 20.5983 27.0325C21.3396 27.0325 22.0591 27.0343 22.7787 27.0316C23.554 27.0279 24.017 26.5865 24.0284 25.8362C24.035 25.3654 24.0161 24.8927 24.0397 24.4228C24.0454 24.3097 24.1505 24.1598 24.2537 24.0991C24.8587 23.7442 25.4731 23.404 26.0951 23.0785C26.2002 23.0233 26.3848 23.0196 26.4908 23.0729C26.9424 23.2964 27.377 23.5539 27.821 23.7911C28.4743 24.1387 29.0887 23.9879 29.4655 23.3745C30.221 22.1424 30.9718 20.9065 31.715 19.666C32.0937 19.0334 31.9166 18.4237 31.2624 18.0522ZM18.2996 4.11846V27.8794C18.2996 28.8458 17.8963 29.2394 16.905 29.2394C12.5358 29.2403 8.16564 29.2403 3.79546 29.2394C2.83167 29.2394 2.42268 28.8375 2.42268 27.8932V4.09823C2.42268 3.15662 2.83735 2.74834 3.79262 2.74834H8.06623C8.28114 4.15432 9.16445 4.97455 10.4075 4.95432C11.6061 4.93501 12.4837 4.08535 12.6418 2.78512C12.6712 2.77501 12.7024 2.75386 12.7346 2.75386C14.222 2.7511 15.7103 2.74191 17.1985 2.75386C17.8007 2.75846 18.2627 3.22375 18.2968 3.80765C18.3034 3.91156 18.2996 4.01455 18.2996 4.11846ZM27.395 14.6168C27.6033 15.529 27.6061 16.4385 27.3997 17.3506C27.234 18.0817 27.4168 18.4697 28.0833 18.8375C28.4317 19.0297 28.7791 19.2237 29.1275 19.4187C29.1465 19.4288 29.1578 19.4527 29.19 19.4877C28.8179 20.1019 28.4421 20.7226 28.0454 21.3745C27.6487 21.1585 27.2615 20.9488 26.8752 20.7382C26.2191 20.3805 25.8262 20.4136 25.2658 20.8881C24.5065 21.529 23.6544 22.0026 22.6944 22.2987C22.008 22.5102 21.7666 22.8467 21.7618 23.5447C21.759 23.9345 21.7581 24.3254 21.7543 24.7162C21.7543 24.7373 21.7401 24.7585 21.724 24.8017H20.5926V20.4219C22.008 20.3658 23.1971 19.8362 24.0965 18.7575C24.8179 17.8923 25.1474 16.8918 25.0991 15.7801C25.0149 13.8233 23.4499 11.6982 20.585 11.5557V7.18053H21.7618C21.7618 7.62558 21.7581 8.05869 21.7618 8.49179C21.7685 9.12903 22.0146 9.47202 22.6423 9.66788C23.6582 9.98421 24.5595 10.4863 25.3576 11.175C25.7884 11.5447 26.2239 11.5833 26.7323 11.3249C26.9519 11.2136 27.164 11.0895 27.3808 10.9718C27.5966 10.855 27.8125 10.7401 28.035 10.6205C28.0785 10.6812 28.1145 10.7263 28.1439 10.775C28.4923 11.3479 28.8397 11.9217 29.208 12.5295C28.8227 12.7419 28.4468 12.9497 28.07 13.1575C27.4224 13.5143 27.2331 13.9079 27.395 14.6168ZM20.5907 18.1874V13.8012C21.8139 13.792 22.826 14.7787 22.8355 15.9741C22.844 17.186 21.8376 18.1883 20.5907 18.1874Z" fill="#FFB606"></path><path d="M8.91648 18.5516C9.33589 19.0059 9.32642 19.656 8.89849 20.0781C8.4592 20.5112 7.77187 20.5295 7.30607 20.0928C6.70299 19.5273 6.1179 18.9415 5.52429 18.365C4.9979 17.8528 4.46867 17.3433 3.94701 16.8275C3.41778 16.3043 3.41873 15.6771 3.95364 15.1539C5.04524 14.0854 6.13873 13.0206 7.23601 11.9585C7.73494 11.4758 8.41565 11.4537 8.88051 11.8923C9.35483 12.3401 9.34252 13.0197 8.83601 13.5181C8.00477 14.3346 7.16595 15.1429 6.2921 15.9916C7.05991 16.7392 7.80216 17.461 8.54346 18.1829C8.66843 18.3052 8.79814 18.4229 8.91648 18.5516Z" fill="#FFB606"></path><path d="M16.8558 16.7411C15.715 17.874 14.5618 18.9958 13.3983 20.1066C12.9505 20.5342 12.265 20.5057 11.8324 20.0873C11.3893 19.6579 11.3704 18.9866 11.8229 18.5379C12.675 17.6937 13.5441 16.8662 14.4426 15.9954C13.5526 15.1328 12.6911 14.3135 11.8494 13.4767C11.2085 12.8404 11.4849 11.8354 12.3484 11.6174C12.7441 11.5172 13.1095 11.6009 13.3983 11.8786C14.5571 12.994 15.7131 14.1131 16.8549 15.245C17.2866 15.6726 17.2875 16.3135 16.8558 16.7411Z" fill="#FFB606"></path></g><defs><clipPath id="clip0_1289_141"><rect width="32" height="32" fill="white"></rect></clipPath></defs></svg>