<svg xmlns="http://www.w3.org/2000/svg" width="32" height="32" viewBox="0 0 32 32" fill="none"><g clip-path="url(#clip0_1093_9939)"><path d="M26.1209 9.09487C24.6667 3.30154 19.1251 -0.170963 13.0384 1.53904C8.60005 2.78654 5.87172 6.90237 5.62089 11.0582C5.42422 14.3274 6.56172 17.074 8.97839 19.2849C9.86589 20.0965 10.4859 21.0799 10.8259 22.2357C10.9067 22.509 10.9542 22.7924 11.0159 23.0674C10.3859 23.2465 10.1192 23.509 10.1042 23.9607C10.0826 24.629 10.4776 24.929 11.1042 25.0057C10.8892 28.0357 12.1242 30.0674 15.0759 30.9432C15.1601 31.5799 15.2309 31.6865 15.7817 31.9999H16.2809C16.7559 31.7949 17.0017 31.4357 16.9792 30.9232C19.4384 30.3682 21.1317 28.2457 20.9751 25.6315C20.9634 25.4265 20.9734 25.2199 20.9734 25.0249C21.7109 24.7974 21.9467 24.5699 21.9651 24.0874C21.9851 23.5815 21.7834 23.3457 21.0801 23.0574C21.0801 23.0182 21.0759 22.9765 21.0809 22.9357C21.0876 22.874 21.0976 22.8124 21.1101 22.7515C21.4042 21.3874 22.0676 20.2382 23.0884 19.2865C26.0884 16.4857 27.1134 13.049 26.1209 9.09487ZM17.6401 28.6732C16.4151 29.404 14.7942 29.1932 13.8209 28.1965C13.3209 27.6849 13.0559 27.0582 12.9909 26.3582C12.9501 25.9165 12.9834 25.4682 12.9834 24.989H19.0492C19.2642 26.5382 18.9309 27.9024 17.6401 28.6732ZM13.6517 13.889C12.8784 14.9424 12.9101 16.389 13.7292 17.4324C14.5409 18.4649 15.9584 18.839 17.1534 18.3357C18.3684 17.8249 19.1251 16.5165 18.9526 15.209C18.9267 15.0149 18.8967 14.8057 18.8034 14.639C18.6467 14.359 18.7492 14.1957 18.9526 14.004C19.3992 13.5824 19.8184 13.1332 20.2617 12.709C20.3567 12.6182 20.5067 12.5365 20.6326 12.5349C21.8801 12.5224 23.1267 12.5274 24.3742 12.5282C24.4251 12.5282 24.4751 12.5407 24.5526 12.5499C24.4884 13.3424 24.2817 14.0882 23.9901 14.8099C23.5342 15.934 22.8809 16.934 21.9826 17.7499C20.4476 19.1457 19.4851 20.8415 19.1892 22.9065C19.1801 22.9665 19.1534 23.024 19.1317 23.0915H12.9226C12.8876 22.9032 12.8492 22.714 12.8176 22.5232C12.5384 20.8282 11.6901 19.4415 10.5334 18.2065C9.91589 17.5474 9.31339 16.8649 8.78255 16.1365C8.01339 15.0832 7.65339 13.8615 7.51005 12.5274H7.87339C9.19339 12.5274 10.5134 12.5199 11.8334 12.5315C12.2342 12.5349 12.5517 12.4107 12.8317 12.119C13.3934 11.5324 13.9784 10.9699 14.5442 10.3882C14.6726 10.2565 14.7734 10.2382 14.9484 10.3082C16.1901 10.8024 17.5992 10.3924 18.4009 9.3182C19.1834 8.2682 19.1642 6.82987 18.3542 5.77404C17.5659 4.74737 16.1559 4.35237 14.9659 4.82404C13.7492 5.30654 12.9626 6.6032 13.1109 7.91737C13.1409 8.18237 13.2559 8.43654 13.3084 8.69987C13.3284 8.8007 13.3226 8.9532 13.2617 9.01737C12.7734 9.52904 12.2709 10.0274 11.7651 10.5224C11.6984 10.5882 11.5884 10.6457 11.4976 10.6457C10.2084 10.6532 8.92005 10.6499 7.63089 10.6474C7.60172 10.6474 7.57339 10.6307 7.54505 10.6224C7.85589 7.09404 10.5542 3.4582 15.2992 3.0782C20.0909 2.69487 23.9859 5.89154 24.5542 10.6524H24.1667C22.8676 10.6524 21.5684 10.659 20.2692 10.6482C19.8459 10.6449 19.5117 10.7774 19.2167 11.0865C18.6642 11.6674 18.0859 12.2215 17.5259 12.7949C17.4001 12.9232 17.3009 12.9507 17.1226 12.879C15.8692 12.3774 14.4551 12.7949 13.6517 13.889ZM17.0967 15.6115C17.0959 16.2015 16.6109 16.6882 16.0317 16.6815C15.4326 16.674 14.9726 16.2074 14.9734 15.6074C14.9742 14.9999 15.4242 14.5507 16.0359 14.5474C16.6292 14.544 17.0984 15.014 17.0967 15.6115ZM14.9692 7.57737C14.9676 6.98987 15.4534 6.49987 16.0317 6.50487C16.6342 6.50987 17.0909 6.96987 17.0917 7.5732C17.0934 8.18404 16.6459 8.63404 16.0351 8.6382C15.4426 8.6432 14.9701 8.1732 14.9692 7.57737Z" fill="#FFB606"></path><path d="M7.11433 2.66917C6.78767 2.98917 6.29433 3.06667 5.9535 2.77333C5.49183 2.37417 5.04767 1.94417 4.65267 1.47917C4.28767 1.05 4.471 0.388333 4.96767 0.118333C5.0385 0.08 5.10767 0.0391667 5.17767 0H5.61433C6.2885 0.359167 6.75517 0.951667 7.241 1.51C7.53433 1.84833 7.441 2.34833 7.11433 2.66917Z" fill="#FFB606"></path><path d="M32.0001 11.3751V11.8126C31.796 12.3526 31.4001 12.5634 30.8343 12.5318C30.4318 12.5093 30.026 12.5326 29.6218 12.5259C29.0501 12.5151 28.6468 12.1434 28.6318 11.6226C28.616 11.0884 29.0135 10.6776 29.5935 10.6576C30.0693 10.6418 30.5468 10.6534 31.0235 10.6551C31.5235 10.6568 31.8276 10.9268 32.0001 11.3751Z" fill="#FFB606"></path><path d="M27.4 1.50167C27.0134 1.93417 26.6026 2.34833 26.1717 2.73667C25.8242 3.05 25.2867 3.00083 24.9534 2.67833C24.6317 2.3675 24.5342 1.81333 24.8409 1.48917C25.3425 0.96 25.9092 0.493333 26.4484 0H26.885C27.0575 0.126667 27.2601 0.2275 27.3967 0.385C27.6776 0.7075 27.6875 1.18 27.4 1.50167Z" fill="#FFB606"></path><path d="M3.43008 11.6243C3.41592 12.1135 3.07092 12.481 2.56842 12.5168C2.28925 12.536 2.00842 12.5202 1.72842 12.5202V12.5227C1.46925 12.5227 1.20925 12.5368 0.950916 12.5202C0.446749 12.4877 0.0734162 12.0943 0.0650828 11.6077C0.0567495 11.1235 0.417583 10.6977 0.92175 10.671C1.47925 10.6418 2.04175 10.641 2.60008 10.676C3.11758 10.7085 3.44508 11.1152 3.43008 11.6243Z" fill="#FFB606"></path><path d="M7.12666 21.836C6.77833 22.2068 6.41833 22.5668 6.04833 22.916C5.74916 23.1977 5.3925 23.2635 5.0125 23.0885C4.6575 22.9243 4.48916 22.6327 4.41333 22.2102C4.52666 21.9977 4.60583 21.7552 4.76 21.5793C5.08166 21.2127 5.43666 20.876 5.78916 20.5377C6.2 20.1435 6.74166 20.1435 7.12166 20.5235C7.49666 20.8977 7.5075 21.4293 7.12666 21.836Z" fill="#FFB606"></path><path d="M27.5976 22.1418C27.5751 22.6443 27.4001 22.9326 27.0451 23.0943C26.6893 23.2551 26.341 23.2085 26.0593 22.9485C25.6551 22.5751 25.2643 22.186 24.8951 21.7785C24.5518 21.3993 24.5943 20.8701 24.9551 20.516C25.3051 20.1718 25.8251 20.1318 26.1926 20.4651C26.6068 20.8418 27.0035 21.241 27.3768 21.6585C27.511 21.8085 27.5543 22.041 27.5976 22.1418Z" fill="#FFB606"></path></g><defs><clipPath id="clip0_1093_9939"><rect width="32" height="32" fill="white"></rect></clipPath></defs></svg>